<?xml version="1.0" encoding="utf-8"?>
<!-- Generator: Adobe Illustrator 22.1.0, SVG Export Plug-In . SVG Version: 6.00 Build 0)  -->
<svg version="1.1" id="Layer_1" xmlns="http://www.w3.org/2000/svg" xmlns:xlink="http://www.w3.org/1999/xlink" x="0px" y="0px"
	 viewBox="0 0 232 81" style="enable-background:new 0 0 232 81;" xml:space="preserve">
<style type="text/css">
	.st0{fill:#FFFFFF;}
	.st1{clip-path:url(#SVGID_2_);fill:#308BD6;}
	.st2{clip-path:url(#SVGID_2_);fill:#318CD6;}
	.st3{clip-path:url(#SVGID_2_);fill:#328DD7;}
	.st4{clip-path:url(#SVGID_2_);fill:#338ED7;}
	.st5{clip-path:url(#SVGID_2_);fill:#348FD8;}
	.st6{clip-path:url(#SVGID_2_);fill:#3590D8;}
	.st7{clip-path:url(#SVGID_2_);fill:#3691D9;}
	.st8{clip-path:url(#SVGID_2_);fill:#3792D9;}
	.st9{clip-path:url(#SVGID_2_);fill:#3893DA;}
	.st10{clip-path:url(#SVGID_2_);fill:#3994DA;}
	.st11{clip-path:url(#SVGID_2_);fill:#3A95DA;}
	.st12{clip-path:url(#SVGID_2_);fill:#3B96DB;}
	.st13{clip-path:url(#SVGID_2_);fill:#3C97DB;}
	.st14{clip-path:url(#SVGID_2_);fill:#3D98DC;}
	.st15{clip-path:url(#SVGID_2_);fill:#3E99DC;}
	.st16{clip-path:url(#SVGID_2_);fill:#3F9ADD;}
	.st17{clip-path:url(#SVGID_2_);fill:#409BDD;}
	.st18{clip-path:url(#SVGID_2_);fill:#419CDE;}
	.st19{clip-path:url(#SVGID_2_);fill:#429DDE;}
	.st20{clip-path:url(#SVGID_2_);fill:#439EDE;}
	.st21{clip-path:url(#SVGID_2_);fill:#449FDF;}
	.st22{clip-path:url(#SVGID_2_);fill:#45A0DF;}
	.st23{clip-path:url(#SVGID_2_);fill:#46A1E0;}
	.st24{clip-path:url(#SVGID_2_);fill:#47A2E0;}
	.st25{clip-path:url(#SVGID_2_);fill:#48A4E1;}
	.st26{clip-path:url(#SVGID_2_);fill:#49A5E1;}
	.st27{clip-path:url(#SVGID_2_);fill:#4AA6E2;}
	.st28{clip-path:url(#SVGID_2_);fill:#4BA7E2;}
	.st29{clip-path:url(#SVGID_2_);fill:#4CA8E3;}
	.st30{clip-path:url(#SVGID_2_);fill:#4DA9E3;}
	.st31{clip-path:url(#SVGID_2_);fill:#4EAAE3;}
	.st32{clip-path:url(#SVGID_2_);fill:#4FABE4;}
	.st33{clip-path:url(#SVGID_2_);fill:#50ACE4;}
	.st34{clip-path:url(#SVGID_2_);fill:#51ADE5;}
	.st35{clip-path:url(#SVGID_2_);fill:#52AEE5;}
	.st36{clip-path:url(#SVGID_2_);fill:#53AFE6;}
	.st37{clip-path:url(#SVGID_2_);fill:#54B0E6;}
	.st38{clip-path:url(#SVGID_2_);fill:#55B1E7;}
	.st39{clip-path:url(#SVGID_2_);fill:#56B2E7;}
	.st40{clip-path:url(#SVGID_2_);fill:#57B3E7;}
	.st41{clip-path:url(#SVGID_2_);fill:#58B4E8;}
	.st42{clip-path:url(#SVGID_2_);fill:#59B5E8;}
	.st43{clip-path:url(#SVGID_2_);fill:#5AB6E9;}
	.st44{clip-path:url(#SVGID_2_);fill:#5BB7E9;}
	.st45{clip-path:url(#SVGID_2_);fill:#5CB8EA;}
	.st46{clip-path:url(#SVGID_2_);fill:#5DB9EA;}
	.st47{clip-path:url(#SVGID_2_);fill:#5EBAEB;}
	.st48{clip-path:url(#SVGID_2_);fill:#5FBBEB;}
	.st49{clip-path:url(#SVGID_4_);fill:#2E5E87;}
	.st50{clip-path:url(#SVGID_4_);fill:#2E5F88;}
	.st51{clip-path:url(#SVGID_4_);fill:#2F5F89;}
	.st52{clip-path:url(#SVGID_4_);fill:#2F608A;}
	.st53{clip-path:url(#SVGID_4_);fill:#30618B;}
	.st54{clip-path:url(#SVGID_4_);fill:#30628C;}
	.st55{clip-path:url(#SVGID_4_);fill:#31628D;}
	.st56{clip-path:url(#SVGID_4_);fill:#31638E;}
	.st57{clip-path:url(#SVGID_4_);fill:#31648F;}
	.st58{clip-path:url(#SVGID_4_);fill:#326590;}
	.st59{clip-path:url(#SVGID_4_);fill:#326591;}
	.st60{clip-path:url(#SVGID_4_);fill:#336692;}
	.st61{clip-path:url(#SVGID_4_);fill:#336793;}
	.st62{clip-path:url(#SVGID_4_);fill:#346894;}
	.st63{clip-path:url(#SVGID_4_);fill:#346895;}
	.st64{clip-path:url(#SVGID_4_);fill:#356996;}
	.st65{clip-path:url(#SVGID_4_);fill:#356A97;}
	.st66{clip-path:url(#SVGID_4_);fill:#356B98;}
	.st67{clip-path:url(#SVGID_4_);fill:#366B99;}
	.st68{clip-path:url(#SVGID_4_);fill:#366C9A;}
	.st69{clip-path:url(#SVGID_4_);fill:#376D9B;}
	.st70{clip-path:url(#SVGID_4_);fill:#376E9C;}
	.st71{clip-path:url(#SVGID_4_);fill:#386E9D;}
	.st72{clip-path:url(#SVGID_4_);fill:#386F9E;}
	.st73{clip-path:url(#SVGID_4_);fill:#38709F;}
	.st74{clip-path:url(#SVGID_4_);fill:#3971A0;}
	.st75{clip-path:url(#SVGID_4_);fill:#3971A1;}
	.st76{clip-path:url(#SVGID_4_);fill:#3A72A2;}
	.st77{clip-path:url(#SVGID_4_);fill:#3A73A3;}
	.st78{clip-path:url(#SVGID_4_);fill:#3B74A4;}
	.st79{clip-path:url(#SVGID_4_);fill:#3B74A5;}
	.st80{clip-path:url(#SVGID_4_);fill:#3C75A7;}
	.st81{clip-path:url(#SVGID_4_);fill:#3C76A8;}
	.st82{clip-path:url(#SVGID_4_);fill:#3C76A9;}
	.st83{clip-path:url(#SVGID_4_);fill:#3D77AA;}
	.st84{clip-path:url(#SVGID_4_);fill:#3D78AB;}
	.st85{clip-path:url(#SVGID_4_);fill:#3E79AC;}
	.st86{clip-path:url(#SVGID_4_);fill:#3E79AD;}
	.st87{clip-path:url(#SVGID_4_);fill:#3F7AAE;}
	.st88{clip-path:url(#SVGID_4_);fill:#3F7BAF;}
	.st89{clip-path:url(#SVGID_4_);fill:#3F7CB0;}
	.st90{clip-path:url(#SVGID_4_);fill:#407CB1;}
	.st91{clip-path:url(#SVGID_4_);fill:#407DB2;}
	.st92{clip-path:url(#SVGID_4_);fill:#417EB3;}
	.st93{clip-path:url(#SVGID_4_);fill:#417FB4;}
	.st94{clip-path:url(#SVGID_4_);fill:#427FB5;}
	.st95{clip-path:url(#SVGID_4_);fill:#4280B6;}
	.st96{clip-path:url(#SVGID_4_);fill:#4281B7;}
	.st97{clip-path:url(#SVGID_4_);fill:#4382B8;}
	.st98{clip-path:url(#SVGID_4_);fill:#4382B9;}
	.st99{clip-path:url(#SVGID_4_);fill:#4483BA;}
	.st100{clip-path:url(#SVGID_4_);fill:#4484BB;}
	.st101{clip-path:url(#SVGID_4_);fill:#4585BC;}
	.st102{clip-path:url(#SVGID_4_);fill:#4585BD;}
	.st103{clip-path:url(#SVGID_4_);fill:#4686BE;}
	.st104{clip-path:url(#SVGID_4_);fill:#4687BF;}
	.st105{clip-path:url(#SVGID_4_);fill:#4688C0;}
	.st106{clip-path:url(#SVGID_4_);fill:#4788C1;}
	.st107{clip-path:url(#SVGID_4_);fill:#4789C2;}
	.st108{clip-path:url(#SVGID_4_);fill:#488AC3;}
	.st109{clip-path:url(#SVGID_4_);fill:#488BC4;}
	.st110{clip-path:url(#SVGID_4_);fill:#498BC5;}
	.st111{clip-path:url(#SVGID_4_);fill:#498CC6;}
	.st112{clip-path:url(#SVGID_6_);fill:#4CE8C6;}
	.st113{clip-path:url(#SVGID_6_);fill:#4BE8C7;}
	.st114{clip-path:url(#SVGID_6_);fill:#4AE7C7;}
	.st115{clip-path:url(#SVGID_6_);fill:#49E7C8;}
	.st116{clip-path:url(#SVGID_6_);fill:#48E6C8;}
	.st117{clip-path:url(#SVGID_6_);fill:#47E6C9;}
	.st118{clip-path:url(#SVGID_6_);fill:#46E6C9;}
	.st119{clip-path:url(#SVGID_6_);fill:#45E5CA;}
	.st120{clip-path:url(#SVGID_6_);fill:#44E5CB;}
	.st121{clip-path:url(#SVGID_6_);fill:#43E4CB;}
	.st122{clip-path:url(#SVGID_6_);fill:#42E4CC;}
	.st123{clip-path:url(#SVGID_6_);fill:#41E4CC;}
	.st124{clip-path:url(#SVGID_6_);fill:#40E3CD;}
	.st125{clip-path:url(#SVGID_6_);fill:#3FE3CE;}
	.st126{clip-path:url(#SVGID_6_);fill:#3EE2CE;}
	.st127{clip-path:url(#SVGID_6_);fill:#3DE2CF;}
	.st128{clip-path:url(#SVGID_6_);fill:#3CE2CF;}
	.st129{clip-path:url(#SVGID_6_);fill:#3BE1D0;}
	.st130{clip-path:url(#SVGID_6_);fill:#3AE1D0;}
	.st131{clip-path:url(#SVGID_6_);fill:#39E0D1;}
	.st132{clip-path:url(#SVGID_6_);fill:#38E0D2;}
	.st133{clip-path:url(#SVGID_6_);fill:#37E0D2;}
	.st134{clip-path:url(#SVGID_6_);fill:#36DFD3;}
	.st135{clip-path:url(#SVGID_6_);fill:#35DFD3;}
	.st136{clip-path:url(#SVGID_6_);fill:#34DED4;}
	.st137{clip-path:url(#SVGID_6_);fill:#33DED5;}
	.st138{clip-path:url(#SVGID_6_);fill:#31DED5;}
	.st139{clip-path:url(#SVGID_6_);fill:#30DDD6;}
	.st140{clip-path:url(#SVGID_6_);fill:#2FDDD6;}
	.st141{clip-path:url(#SVGID_6_);fill:#2EDCD7;}
	.st142{clip-path:url(#SVGID_6_);fill:#2DDCD7;}
	.st143{clip-path:url(#SVGID_6_);fill:#2CDCD8;}
	.st144{clip-path:url(#SVGID_6_);fill:#2BDBD9;}
	.st145{clip-path:url(#SVGID_6_);fill:#2ADBD9;}
	.st146{clip-path:url(#SVGID_6_);fill:#29DADA;}
	.st147{clip-path:url(#SVGID_6_);fill:#28DADA;}
	.st148{clip-path:url(#SVGID_6_);fill:#27DADB;}
	.st149{clip-path:url(#SVGID_6_);fill:#26D9DB;}
	.st150{clip-path:url(#SVGID_6_);fill:#25D9DC;}
	.st151{clip-path:url(#SVGID_6_);fill:#24D8DD;}
	.st152{clip-path:url(#SVGID_6_);fill:#23D8DD;}
	.st153{clip-path:url(#SVGID_6_);fill:#22D8DE;}
	.st154{clip-path:url(#SVGID_6_);fill:#21D7DE;}
	.st155{clip-path:url(#SVGID_6_);fill:#20D7DF;}
	.st156{clip-path:url(#SVGID_6_);fill:#1FD6E0;}
	.st157{clip-path:url(#SVGID_6_);fill:#1ED6E0;}
	.st158{clip-path:url(#SVGID_6_);fill:#1DD6E1;}
	.st159{clip-path:url(#SVGID_6_);fill:#1CD5E1;}
	.st160{clip-path:url(#SVGID_6_);fill:#1BD5E2;}
	.st161{clip-path:url(#SVGID_6_);fill:#1AD4E2;}
	.st162{clip-path:url(#SVGID_6_);fill:#19D4E3;}
	.st163{opacity:0.4;}
	.st164{clip-path:url(#SVGID_8_);fill:#4CE8C6;}
	.st165{clip-path:url(#SVGID_8_);fill:#4BE8C7;}
	.st166{clip-path:url(#SVGID_8_);fill:#4AE7C7;}
	.st167{clip-path:url(#SVGID_8_);fill:#49E7C8;}
	.st168{clip-path:url(#SVGID_8_);fill:#48E6C8;}
	.st169{clip-path:url(#SVGID_8_);fill:#47E6C9;}
	.st170{clip-path:url(#SVGID_8_);fill:#46E6C9;}
	.st171{clip-path:url(#SVGID_8_);fill:#45E5CA;}
	.st172{clip-path:url(#SVGID_8_);fill:#44E5CB;}
	.st173{clip-path:url(#SVGID_8_);fill:#43E4CB;}
	.st174{clip-path:url(#SVGID_8_);fill:#42E4CC;}
	.st175{clip-path:url(#SVGID_8_);fill:#41E4CC;}
	.st176{clip-path:url(#SVGID_8_);fill:#40E3CD;}
	.st177{clip-path:url(#SVGID_8_);fill:#3FE3CE;}
	.st178{clip-path:url(#SVGID_8_);fill:#3EE2CE;}
	.st179{clip-path:url(#SVGID_8_);fill:#3DE2CF;}
	.st180{clip-path:url(#SVGID_8_);fill:#3CE2CF;}
	.st181{clip-path:url(#SVGID_8_);fill:#3BE1D0;}
	.st182{clip-path:url(#SVGID_8_);fill:#3AE1D0;}
	.st183{clip-path:url(#SVGID_8_);fill:#39E0D1;}
	.st184{clip-path:url(#SVGID_8_);fill:#38E0D2;}
	.st185{clip-path:url(#SVGID_8_);fill:#37E0D2;}
	.st186{clip-path:url(#SVGID_8_);fill:#36DFD3;}
	.st187{clip-path:url(#SVGID_8_);fill:#35DFD3;}
	.st188{clip-path:url(#SVGID_8_);fill:#34DED4;}
	.st189{clip-path:url(#SVGID_8_);fill:#33DED5;}
	.st190{clip-path:url(#SVGID_8_);fill:#31DED5;}
	.st191{clip-path:url(#SVGID_8_);fill:#30DDD6;}
	.st192{clip-path:url(#SVGID_8_);fill:#2FDDD6;}
	.st193{clip-path:url(#SVGID_8_);fill:#2EDCD7;}
	.st194{clip-path:url(#SVGID_8_);fill:#2DDCD7;}
	.st195{clip-path:url(#SVGID_8_);fill:#2CDCD8;}
	.st196{clip-path:url(#SVGID_8_);fill:#2BDBD9;}
	.st197{clip-path:url(#SVGID_8_);fill:#2ADBD9;}
	.st198{clip-path:url(#SVGID_8_);fill:#29DADA;}
	.st199{clip-path:url(#SVGID_8_);fill:#28DADA;}
	.st200{clip-path:url(#SVGID_8_);fill:#27DADB;}
	.st201{clip-path:url(#SVGID_8_);fill:#26D9DB;}
	.st202{clip-path:url(#SVGID_8_);fill:#25D9DC;}
	.st203{clip-path:url(#SVGID_8_);fill:#24D8DD;}
	.st204{clip-path:url(#SVGID_8_);fill:#23D8DD;}
	.st205{clip-path:url(#SVGID_8_);fill:#22D8DE;}
	.st206{clip-path:url(#SVGID_8_);fill:#21D7DE;}
	.st207{clip-path:url(#SVGID_8_);fill:#20D7DF;}
	.st208{clip-path:url(#SVGID_8_);fill:#1FD6E0;}
	.st209{clip-path:url(#SVGID_8_);fill:#1ED6E0;}
	.st210{clip-path:url(#SVGID_8_);fill:#1DD6E1;}
	.st211{clip-path:url(#SVGID_8_);fill:#1CD5E1;}
	.st212{clip-path:url(#SVGID_8_);fill:#1BD5E2;}
	.st213{clip-path:url(#SVGID_8_);fill:#1AD4E2;}
	.st214{clip-path:url(#SVGID_8_);fill:#19D4E3;}
	.st215{opacity:0.5;}
	.st216{clip-path:url(#SVGID_10_);fill:#316490;}
	.st217{clip-path:url(#SVGID_10_);fill:#316591;}
	.st218{clip-path:url(#SVGID_10_);fill:#326692;}
	.st219{clip-path:url(#SVGID_10_);fill:#326693;}
	.st220{clip-path:url(#SVGID_10_);fill:#336794;}
	.st221{clip-path:url(#SVGID_10_);fill:#336895;}
	.st222{clip-path:url(#SVGID_10_);fill:#346996;}
	.st223{clip-path:url(#SVGID_10_);fill:#346997;}
	.st224{clip-path:url(#SVGID_10_);fill:#356A98;}
	.st225{clip-path:url(#SVGID_10_);fill:#356B99;}
	.st226{clip-path:url(#SVGID_10_);fill:#366C9A;}
	.st227{clip-path:url(#SVGID_10_);fill:#366C9B;}
	.st228{clip-path:url(#SVGID_10_);fill:#366D9C;}
	.st229{clip-path:url(#SVGID_10_);fill:#376E9D;}
	.st230{clip-path:url(#SVGID_10_);fill:#376F9E;}
	.st231{clip-path:url(#SVGID_10_);fill:#386F9F;}
	.st232{clip-path:url(#SVGID_10_);fill:#3870A0;}
	.st233{clip-path:url(#SVGID_10_);fill:#3971A1;}
	.st234{clip-path:url(#SVGID_10_);fill:#3972A2;}
	.st235{clip-path:url(#SVGID_10_);fill:#3A72A3;}
	.st236{clip-path:url(#SVGID_10_);fill:#3A73A4;}
	.st237{clip-path:url(#SVGID_10_);fill:#3B74A5;}
	.st238{clip-path:url(#SVGID_10_);fill:#3B75A6;}
	.st239{clip-path:url(#SVGID_10_);fill:#3B75A7;}
	.st240{clip-path:url(#SVGID_10_);fill:#3C76A8;}
	.st241{clip-path:url(#SVGID_10_);fill:#3C77A9;}
	.st242{clip-path:url(#SVGID_10_);fill:#3D78AA;}
	.st243{clip-path:url(#SVGID_10_);fill:#3D78AC;}
	.st244{clip-path:url(#SVGID_10_);fill:#3E79AD;}
	.st245{clip-path:url(#SVGID_10_);fill:#3E7AAE;}
	.st246{clip-path:url(#SVGID_10_);fill:#3F7BAF;}
	.st247{clip-path:url(#SVGID_10_);fill:#3F7BB0;}
	.st248{clip-path:url(#SVGID_10_);fill:#3F7CB1;}
	.st249{clip-path:url(#SVGID_10_);fill:#407DB2;}
	.st250{clip-path:url(#SVGID_10_);fill:#407EB3;}
	.st251{clip-path:url(#SVGID_10_);fill:#417EB4;}
	.st252{clip-path:url(#SVGID_10_);fill:#417FB5;}
	.st253{clip-path:url(#SVGID_10_);fill:#4280B6;}
	.st254{clip-path:url(#SVGID_10_);fill:#4281B7;}
	.st255{clip-path:url(#SVGID_10_);fill:#4381B8;}
	.st256{clip-path:url(#SVGID_10_);fill:#4382B9;}
	.st257{clip-path:url(#SVGID_10_);fill:#4483BA;}
	.st258{clip-path:url(#SVGID_10_);fill:#4484BB;}
	.st259{clip-path:url(#SVGID_10_);fill:#4484BC;}
	.st260{clip-path:url(#SVGID_10_);fill:#4585BD;}
	.st261{clip-path:url(#SVGID_10_);fill:#4586BE;}
	.st262{clip-path:url(#SVGID_10_);fill:#4687BF;}
	.st263{clip-path:url(#SVGID_10_);fill:#4687C0;}
	.st264{clip-path:url(#SVGID_10_);fill:#4788C1;}
	.st265{clip-path:url(#SVGID_10_);fill:#4789C2;}
	.st266{clip-path:url(#SVGID_10_);fill:#488AC3;}
	.st267{clip-path:url(#SVGID_10_);fill:#488AC4;}
	.st268{clip-path:url(#SVGID_10_);fill:#498BC5;}
	.st269{clip-path:url(#SVGID_10_);fill:#498CC6;}
	.st270{clip-path:url(#SVGID_12_);fill:#5FBBEB;}
	.st271{clip-path:url(#SVGID_12_);fill:#5EBAEB;}
	.st272{clip-path:url(#SVGID_12_);fill:#5DB9EA;}
	.st273{clip-path:url(#SVGID_12_);fill:#5CB8EA;}
	.st274{clip-path:url(#SVGID_12_);fill:#5BB7E9;}
	.st275{clip-path:url(#SVGID_12_);fill:#5AB6E9;}
	.st276{clip-path:url(#SVGID_12_);fill:#59B5E8;}
	.st277{clip-path:url(#SVGID_12_);fill:#58B4E8;}
	.st278{clip-path:url(#SVGID_12_);fill:#57B3E7;}
	.st279{clip-path:url(#SVGID_12_);fill:#56B2E7;}
	.st280{clip-path:url(#SVGID_12_);fill:#55B1E7;}
	.st281{clip-path:url(#SVGID_12_);fill:#54B0E6;}
	.st282{clip-path:url(#SVGID_12_);fill:#53AFE6;}
	.st283{clip-path:url(#SVGID_12_);fill:#52AEE5;}
	.st284{clip-path:url(#SVGID_12_);fill:#51ADE5;}
	.st285{clip-path:url(#SVGID_12_);fill:#50ACE4;}
	.st286{clip-path:url(#SVGID_12_);fill:#4FABE4;}
	.st287{clip-path:url(#SVGID_12_);fill:#4EAAE3;}
	.st288{clip-path:url(#SVGID_12_);fill:#4DA9E3;}
	.st289{clip-path:url(#SVGID_12_);fill:#4CA8E3;}
	.st290{clip-path:url(#SVGID_12_);fill:#4BA7E2;}
	.st291{clip-path:url(#SVGID_12_);fill:#4AA6E2;}
	.st292{clip-path:url(#SVGID_12_);fill:#49A5E1;}
	.st293{clip-path:url(#SVGID_12_);fill:#48A4E1;}
	.st294{clip-path:url(#SVGID_12_);fill:#47A2E0;}
	.st295{clip-path:url(#SVGID_12_);fill:#46A1E0;}
	.st296{clip-path:url(#SVGID_12_);fill:#45A0DF;}
	.st297{clip-path:url(#SVGID_12_);fill:#449FDF;}
	.st298{clip-path:url(#SVGID_12_);fill:#439EDE;}
	.st299{clip-path:url(#SVGID_12_);fill:#429DDE;}
	.st300{clip-path:url(#SVGID_12_);fill:#419CDE;}
	.st301{clip-path:url(#SVGID_12_);fill:#409BDD;}
	.st302{clip-path:url(#SVGID_12_);fill:#3F9ADD;}
	.st303{clip-path:url(#SVGID_12_);fill:#3E99DC;}
	.st304{clip-path:url(#SVGID_12_);fill:#3D98DC;}
	.st305{clip-path:url(#SVGID_12_);fill:#3C97DB;}
	.st306{clip-path:url(#SVGID_12_);fill:#3B96DB;}
	.st307{clip-path:url(#SVGID_12_);fill:#3A95DA;}
	.st308{clip-path:url(#SVGID_12_);fill:#3994DA;}
	.st309{clip-path:url(#SVGID_12_);fill:#3893DA;}
	.st310{clip-path:url(#SVGID_12_);fill:#3792D9;}
	.st311{clip-path:url(#SVGID_12_);fill:#3691D9;}
	.st312{clip-path:url(#SVGID_12_);fill:#3590D8;}
	.st313{clip-path:url(#SVGID_12_);fill:#348FD8;}
	.st314{clip-path:url(#SVGID_12_);fill:#338ED7;}
	.st315{clip-path:url(#SVGID_12_);fill:#328DD7;}
	.st316{clip-path:url(#SVGID_12_);fill:#318CD6;}
	.st317{clip-path:url(#SVGID_12_);fill:#308BD6;}
	.st318{fill:#316490;}
</style>
<path class="st0" d="M224,81H8c-4.4,0-8-3.6-8-8V8c0-4.4,3.6-8,8-8h216c4.4,0,8,3.6,8,8v65C232,77.4,228.4,81,224,81z"/>
<g>
	<g>
		<g>
			<g>
				<g>
					<defs>
						<polygon id="SVGID_1_" points="15.2,15 15.2,62.9 59.2,56 59.2,8.1 						"/>
					</defs>
					<clipPath id="SVGID_2_">
						<use xlink:href="#SVGID_1_"  style="overflow:visible;"/>
					</clipPath>
					<polygon class="st1" points="56.7,62.9 59.2,56 59.2,62.9 					"/>
					<polygon class="st1" points="55.7,62.9 59.2,53.1 59.2,56 56.7,62.9 					"/>
					<polygon class="st2" points="54.6,62.9 59.2,50.3 59.2,53.1 55.7,62.9 					"/>
					<polygon class="st3" points="53.6,62.9 59.2,47.4 59.2,50.3 54.6,62.9 					"/>
					<polygon class="st4" points="52.6,62.9 59.2,44.6 59.2,47.4 53.6,62.9 					"/>
					<polygon class="st5" points="51.5,62.9 59.2,41.7 59.2,44.6 52.6,62.9 					"/>
					<polygon class="st6" points="50.5,62.9 59.2,38.9 59.2,41.7 51.5,62.9 					"/>
					<polygon class="st7" points="49.4,62.9 59.2,36 59.2,38.9 50.5,62.9 					"/>
					<polygon class="st8" points="48.4,62.9 59.2,33.1 59.2,36 49.4,62.9 					"/>
					<polygon class="st9" points="47.4,62.9 59.2,30.3 59.2,33.1 48.4,62.9 					"/>
					<polygon class="st10" points="46.3,62.9 59.2,27.4 59.2,30.3 47.4,62.9 					"/>
					<polygon class="st11" points="45.3,62.9 59.2,24.6 59.2,27.4 46.3,62.9 					"/>
					<polygon class="st12" points="44.2,62.9 59.2,21.7 59.2,24.6 45.3,62.9 					"/>
					<polygon class="st13" points="43.2,62.9 59.2,18.9 59.2,21.7 44.2,62.9 					"/>
					<polygon class="st14" points="42.2,62.9 59.2,16 59.2,18.9 43.2,62.9 					"/>
					<polygon class="st15" points="41.1,62.9 59.2,13.2 59.2,16 42.2,62.9 					"/>
					<polygon class="st16" points="40.1,62.9 59.2,10.3 59.2,13.2 41.1,62.9 					"/>
					<polygon class="st17" points="39,62.9 59,8.1 59.2,8.1 59.2,10.3 40.1,62.9 					"/>
					<polygon class="st18" points="38,62.9 57.9,8.1 59,8.1 39,62.9 					"/>
					<polygon class="st19" points="37,62.9 56.9,8.1 57.9,8.1 38,62.9 					"/>
					<polygon class="st20" points="35.9,62.9 55.9,8.1 56.9,8.1 37,62.9 					"/>
					<polygon class="st21" points="34.9,62.9 54.8,8.1 55.9,8.1 35.9,62.9 					"/>
					<polygon class="st22" points="33.8,62.9 53.8,8.1 54.8,8.1 34.9,62.9 					"/>
					<polygon class="st23" points="32.8,62.9 52.7,8.1 53.8,8.1 33.8,62.9 					"/>
					<polygon class="st24" points="31.8,62.9 51.7,8.1 52.7,8.1 32.8,62.9 					"/>
					<polygon class="st25" points="30.7,62.9 50.7,8.1 51.7,8.1 31.8,62.9 					"/>
					<polygon class="st26" points="29.7,62.9 49.6,8.1 50.7,8.1 30.7,62.9 					"/>
					<polygon class="st27" points="28.7,62.9 48.6,8.1 49.6,8.1 29.7,62.9 					"/>
					<polygon class="st28" points="27.6,62.9 47.5,8.1 48.6,8.1 28.7,62.9 					"/>
					<polygon class="st29" points="26.6,62.9 46.5,8.1 47.5,8.1 27.6,62.9 					"/>
					<polygon class="st30" points="25.5,62.9 45.5,8.1 46.5,8.1 26.6,62.9 					"/>
					<polygon class="st31" points="24.5,62.9 44.4,8.1 45.5,8.1 25.5,62.9 					"/>
					<polygon class="st32" points="23.5,62.9 43.4,8.1 44.4,8.1 24.5,62.9 					"/>
					<polygon class="st33" points="22.4,62.9 42.3,8.1 43.4,8.1 23.5,62.9 					"/>
					<polygon class="st34" points="21.4,62.9 41.3,8.1 42.3,8.1 22.4,62.9 					"/>
					<polygon class="st35" points="20.3,62.9 40.3,8.1 41.3,8.1 21.4,62.9 					"/>
					<polygon class="st36" points="19.3,62.9 39.2,8.1 40.3,8.1 20.3,62.9 					"/>
					<polygon class="st37" points="18.3,62.9 38.2,8.1 39.2,8.1 19.3,62.9 					"/>
					<polygon class="st38" points="17.2,62.9 37.1,8.1 38.2,8.1 18.3,62.9 					"/>
					<polygon class="st39" points="16.2,62.9 36.1,8.1 37.1,8.1 17.2,62.9 					"/>
					<polygon class="st40" points="15.2,62.7 35.1,8.1 36.1,8.1 16.2,62.9 15.2,62.9 					"/>
					<polygon class="st41" points="15.2,59.9 34,8.1 35.1,8.1 15.2,62.7 					"/>
					<polygon class="st42" points="15.2,57 33,8.1 34,8.1 15.2,59.9 					"/>
					<polygon class="st43" points="15.2,54.2 32,8.1 33,8.1 15.2,57 					"/>
					<polygon class="st44" points="15.2,51.3 30.9,8.1 32,8.1 15.2,54.2 					"/>
					<polygon class="st45" points="15.2,48.5 29.9,8.1 30.9,8.1 15.2,51.3 					"/>
					<polygon class="st46" points="15.2,45.6 28.8,8.1 29.9,8.1 15.2,48.5 					"/>
					<polygon class="st47" points="15.2,42.7 27.8,8.1 28.8,8.1 15.2,45.6 					"/>
					<polygon class="st48" points="15.2,39.9 26.8,8.1 27.8,8.1 15.2,42.7 					"/>
					<polygon class="st48" points="26.8,8.1 15.2,39.9 15.2,8.1 					"/>
				</g>
			</g>
		</g>
		<g>
			<g>
				<g>
					<defs>
						<polygon id="SVGID_3_" points="83,68.7 83,20.8 59.2,8.1 59.2,56 						"/>
					</defs>
					<clipPath id="SVGID_4_">
						<use xlink:href="#SVGID_3_"  style="overflow:visible;"/>
					</clipPath>
					<polygon class="st49" points="83,20.8 78.4,8.1 83,8.1 					"/>
					<polygon class="st49" points="83,22 77.9,8.1 78.4,8.1 83,20.8 					"/>
					<polygon class="st50" points="83,23.1 77.5,8.1 77.9,8.1 83,22 					"/>
					<polygon class="st51" points="83,24.3 77.1,8.1 77.5,8.1 83,23.1 					"/>
					<polygon class="st52" points="83,25.4 76.7,8.1 77.1,8.1 83,24.3 					"/>
					<polygon class="st53" points="83,26.6 76.3,8.1 76.7,8.1 83,25.4 					"/>
					<polygon class="st54" points="83,27.7 75.9,8.1 76.3,8.1 83,26.6 					"/>
					<polygon class="st55" points="83,28.8 75.4,8.1 75.9,8.1 83,27.7 					"/>
					<polygon class="st56" points="83,30 75,8.1 75.4,8.1 83,28.8 					"/>
					<polygon class="st57" points="83,31.1 74.6,8.1 75,8.1 83,30 					"/>
					<polygon class="st58" points="83,32.3 74.2,8.1 74.6,8.1 83,31.1 					"/>
					<polygon class="st59" points="83,33.4 73.8,8.1 74.2,8.1 83,32.3 					"/>
					<polygon class="st60" points="83,34.6 73.4,8.1 73.8,8.1 83,33.4 					"/>
					<polygon class="st61" points="83,35.7 72.9,8.1 73.4,8.1 83,34.6 					"/>
					<polygon class="st62" points="83,36.9 72.5,8.1 72.9,8.1 83,35.7 					"/>
					<polygon class="st63" points="83,38 72.1,8.1 72.5,8.1 83,36.9 					"/>
					<polygon class="st64" points="83,39.1 71.7,8.1 72.1,8.1 83,38 					"/>
					<polygon class="st65" points="83,40.3 71.3,8.1 71.7,8.1 83,39.1 					"/>
					<polygon class="st66" points="83,41.4 70.9,8.1 71.3,8.1 83,40.3 					"/>
					<polygon class="st67" points="83,42.6 70.4,8.1 70.9,8.1 83,41.4 					"/>
					<polygon class="st68" points="83,43.7 70,8.1 70.4,8.1 83,42.6 					"/>
					<polygon class="st69" points="83,44.9 69.6,8.1 70,8.1 83,43.7 					"/>
					<polygon class="st70" points="83,46 69.2,8.1 69.6,8.1 83,44.9 					"/>
					<polygon class="st71" points="83,47.2 68.8,8.1 69.2,8.1 83,46 					"/>
					<polygon class="st72" points="83,48.3 68.4,8.1 68.8,8.1 83,47.2 					"/>
					<polygon class="st73" points="83,49.5 67.9,8.1 68.4,8.1 83,48.3 					"/>
					<polygon class="st74" points="83,50.6 67.5,8.1 67.9,8.1 83,49.5 					"/>
					<polygon class="st75" points="83,51.7 67.1,8.1 67.5,8.1 83,50.6 					"/>
					<polygon class="st76" points="83,52.9 66.7,8.1 67.1,8.1 83,51.7 					"/>
					<polygon class="st77" points="83,54 66.3,8.1 66.7,8.1 83,52.9 					"/>
					<polygon class="st78" points="83,55.2 65.9,8.1 66.3,8.1 83,54 					"/>
					<polygon class="st79" points="83,56.3 65.4,8.1 65.9,8.1 83,55.2 					"/>
					<polygon class="st80" points="83,57.5 65,8.1 65.4,8.1 83,56.3 					"/>
					<polygon class="st81" points="83,58.6 64.6,8.1 65,8.1 83,57.5 					"/>
					<polygon class="st82" points="83,59.8 64.2,8.1 64.6,8.1 83,58.6 					"/>
					<polygon class="st83" points="83,60.9 63.8,8.1 64.2,8.1 83,59.8 					"/>
					<polygon class="st84" points="83,62 63.3,8.1 63.8,8.1 83,60.9 					"/>
					<polygon class="st85" points="83,63.2 62.9,8.1 63.3,8.1 83,62 					"/>
					<polygon class="st86" points="83,64.3 62.5,8.1 62.9,8.1 83,63.2 					"/>
					<polygon class="st87" points="83,65.5 62.1,8.1 62.5,8.1 83,64.3 					"/>
					<polygon class="st88" points="83,66.6 61.7,8.1 62.1,8.1 83,65.5 					"/>
					<polygon class="st89" points="83,67.8 61.3,8.1 61.7,8.1 83,66.6 					"/>
					<polygon class="st90" points="82.9,68.7 60.8,8.1 61.3,8.1 83,67.8 83,68.7 					"/>
					<polygon class="st91" points="82.5,68.7 60.4,8.1 60.8,8.1 82.9,68.7 					"/>
					<polygon class="st92" points="82.1,68.7 60,8.1 60.4,8.1 82.5,68.7 					"/>
					<polygon class="st93" points="81.6,68.7 59.6,8.1 60,8.1 82.1,68.7 					"/>
					<polygon class="st94" points="81.2,68.7 59.2,8.1 59.2,8.1 59.6,8.1 81.6,68.7 					"/>
					<polygon class="st95" points="80.8,68.7 59.2,9.3 59.2,8.1 81.2,68.7 					"/>
					<polygon class="st96" points="80.4,68.7 59.2,10.4 59.2,9.3 80.8,68.7 					"/>
					<polygon class="st97" points="80,68.7 59.2,11.6 59.2,10.4 80.4,68.7 					"/>
					<polygon class="st98" points="79.6,68.7 59.2,12.7 59.2,11.6 80,68.7 					"/>
					<polygon class="st99" points="79.1,68.7 59.2,13.8 59.2,12.7 79.6,68.7 					"/>
					<polygon class="st100" points="78.7,68.7 59.2,15 59.2,13.8 79.1,68.7 					"/>
					<polygon class="st101" points="78.3,68.7 59.2,16.1 59.2,15 78.7,68.7 					"/>
					<polygon class="st102" points="77.9,68.7 59.2,17.3 59.2,16.1 78.3,68.7 					"/>
					<polygon class="st103" points="77.5,68.7 59.2,18.4 59.2,17.3 77.9,68.7 					"/>
					<polygon class="st104" points="77.1,68.7 59.2,19.6 59.2,18.4 77.5,68.7 					"/>
					<polygon class="st105" points="76.6,68.7 59.2,20.7 59.2,19.6 77.1,68.7 					"/>
					<polygon class="st106" points="76.2,68.7 59.2,21.9 59.2,20.7 76.6,68.7 					"/>
					<polygon class="st107" points="75.8,68.7 59.2,23 59.2,21.9 76.2,68.7 					"/>
					<polygon class="st108" points="75.4,68.7 59.2,24.1 59.2,23 75.8,68.7 					"/>
					<polygon class="st109" points="75,68.7 59.2,25.3 59.2,24.1 75.4,68.7 					"/>
					<polygon class="st110" points="74.6,68.7 59.2,26.4 59.2,25.3 75,68.7 					"/>
					<polygon class="st111" points="74.1,68.7 59.2,27.6 59.2,26.4 74.6,68.7 					"/>
					<polygon class="st111" points="59.2,27.6 74.1,68.7 59.2,68.7 					"/>
				</g>
			</g>
		</g>
		<g>
			<g>
				<g>
					<defs>
						<polygon id="SVGID_5_" points="39,75.5 83,68.7 59.2,56 15.2,62.9 						"/>
					</defs>
					<clipPath id="SVGID_6_">
						<use xlink:href="#SVGID_5_"  style="overflow:visible;"/>
					</clipPath>
					<path class="st112" d="M83,75.5v-6.9V75.5z"/>
					<rect x="82.1" y="56" class="st112" width="0.9" height="19.5"/>
					<rect x="81.2" y="56" class="st113" width="0.9" height="19.5"/>
					<rect x="80.3" y="56" class="st114" width="0.9" height="19.5"/>
					<rect x="79.4" y="56" class="st115" width="0.9" height="19.5"/>
					<rect x="78.5" y="56" class="st116" width="0.9" height="19.5"/>
					<rect x="77.6" y="56" class="st117" width="0.9" height="19.5"/>
					<rect x="76.7" y="56" class="st118" width="0.9" height="19.5"/>
					<rect x="75.8" y="56" class="st119" width="0.9" height="19.5"/>
					<rect x="74.9" y="56" class="st120" width="0.9" height="19.5"/>
					<rect x="74" y="56" class="st121" width="0.9" height="19.5"/>
					<rect x="73.1" y="56" class="st122" width="0.9" height="19.5"/>
					<rect x="72.2" y="56" class="st123" width="0.9" height="19.5"/>
					<rect x="71.3" y="56" class="st124" width="0.9" height="19.5"/>
					<rect x="70.4" y="56" class="st125" width="0.9" height="19.5"/>
					<rect x="69.5" y="56" class="st126" width="0.9" height="19.5"/>
					<rect x="68.6" y="56" class="st127" width="0.9" height="19.5"/>
					<rect x="67.7" y="56" class="st128" width="0.9" height="19.5"/>
					<rect x="66.8" y="56" class="st129" width="0.9" height="19.5"/>
					<rect x="65.9" y="56" class="st130" width="0.9" height="19.5"/>
					<rect x="65" y="56" class="st131" width="0.9" height="19.5"/>
					<rect x="64.1" y="56" class="st132" width="0.9" height="19.5"/>
					<rect x="63.2" y="56" class="st133" width="0.9" height="19.5"/>
					<rect x="62.3" y="56" class="st134" width="0.9" height="19.5"/>
					<rect x="61.4" y="56" class="st135" width="0.9" height="19.5"/>
					<rect x="60.5" y="56" class="st136" width="0.9" height="19.5"/>
					<rect x="59.6" y="56" class="st137" width="0.9" height="19.5"/>
					<rect x="58.7" y="56" class="st138" width="0.9" height="19.5"/>
					<rect x="57.8" y="56" class="st139" width="0.9" height="19.5"/>
					<rect x="56.9" y="56" class="st140" width="0.9" height="19.5"/>
					<rect x="56" y="56" class="st141" width="0.9" height="19.5"/>
					<rect x="55.1" y="56" class="st142" width="0.9" height="19.5"/>
					<rect x="54.2" y="56" class="st143" width="0.9" height="19.5"/>
					<rect x="53.3" y="56" class="st144" width="0.9" height="19.5"/>
					<rect x="52.4" y="56" class="st145" width="0.9" height="19.5"/>
					<rect x="51.5" y="56" class="st146" width="0.9" height="19.5"/>
					<rect x="50.6" y="56" class="st147" width="0.9" height="19.5"/>
					<rect x="49.7" y="56" class="st148" width="0.9" height="19.5"/>
					<rect x="48.8" y="56" class="st149" width="0.9" height="19.5"/>
					<rect x="47.9" y="56" class="st150" width="0.9" height="19.5"/>
					<rect x="47" y="56" class="st151" width="0.9" height="19.5"/>
					<rect x="46.1" y="56" class="st152" width="0.9" height="19.5"/>
					<rect x="45.2" y="56" class="st153" width="0.9" height="19.5"/>
					<rect x="44.3" y="56" class="st154" width="0.9" height="19.5"/>
					<rect x="43.4" y="56" class="st155" width="0.9" height="19.5"/>
					<rect x="42.5" y="56" class="st156" width="0.9" height="19.5"/>
					<rect x="41.6" y="56" class="st157" width="0.9" height="19.5"/>
					<rect x="40.7" y="56" class="st158" width="0.9" height="19.5"/>
					<rect x="39.8" y="56" class="st159" width="0.9" height="19.5"/>
					<rect x="38.9" y="56" class="st160" width="0.9" height="19.5"/>
					<rect x="38" y="56" class="st161" width="0.9" height="19.5"/>
					<rect x="37.1" y="56" class="st162" width="0.9" height="19.5"/>
					<rect x="15.2" y="56" class="st162" width="21.9" height="19.5"/>
				</g>
			</g>
		</g>
	</g>
	<g class="st163">
		<g>
			<g>
				<defs>
					<polygon id="SVGID_7_" points="39,27.6 15.2,15 15.2,62.9 39,75.5 					"/>
				</defs>
				<clipPath id="SVGID_8_">
					<use xlink:href="#SVGID_7_"  style="overflow:visible;"/>
				</clipPath>
				<polygon class="st164" points="37.7,75.5 39,73.7 39,75.5 				"/>
				<polygon class="st165" points="36.4,75.5 39,71.8 39,73.7 37.7,75.5 				"/>
				<polygon class="st166" points="35.1,75.5 39,70 39,71.8 36.4,75.5 				"/>
				<polygon class="st167" points="33.8,75.5 39,68.1 39,70 35.1,75.5 				"/>
				<polygon class="st168" points="32.5,75.5 39,66.2 39,68.1 33.8,75.5 				"/>
				<polygon class="st169" points="31.9,75.5 31.4,75.2 39,64.4 39,66.2 32.5,75.5 				"/>
				<polygon class="st170" points="31.4,75.2 30.5,74.6 39,62.5 39,64.4 				"/>
				<polygon class="st171" points="30.5,74.6 29.7,74 39,60.7 39,62.5 				"/>
				<polygon class="st172" points="29.7,74 28.8,73.4 39,58.8 39,60.7 				"/>
				<polygon class="st173" points="28.8,73.4 27.9,72.8 39,57 39,58.8 				"/>
				<polygon class="st174" points="27.9,72.8 27.1,72.1 39,55.1 39,57 				"/>
				<polygon class="st175" points="27.1,72.1 26.2,71.5 39,53.3 39,55.1 				"/>
				<polygon class="st176" points="26.2,71.5 25.3,70.9 39,51.4 39,53.3 				"/>
				<polygon class="st177" points="25.3,70.9 24.4,70.3 39,49.6 39,51.4 				"/>
				<polygon class="st178" points="24.4,70.3 23.6,69.7 39,47.7 39,49.6 				"/>
				<polygon class="st179" points="23.6,69.7 22.7,69.1 39,45.9 39,47.7 				"/>
				<polygon class="st180" points="22.7,69.1 21.8,68.5 39,44 39,45.9 				"/>
				<polygon class="st181" points="21.8,68.5 21,67.9 39,42.2 39,44 				"/>
				<polygon class="st182" points="21,67.9 20.1,67.3 39,40.3 39,42.2 				"/>
				<polygon class="st183" points="20.1,67.3 19.2,66.7 39,38.4 39,40.3 				"/>
				<polygon class="st184" points="19.2,66.7 18.4,66 39,36.6 39,38.4 				"/>
				<polygon class="st185" points="18.4,66 17.5,65.4 39,34.7 39,36.6 				"/>
				<polygon class="st186" points="17.5,65.4 16.6,64.8 39,32.9 39,34.7 				"/>
				<polygon class="st187" points="16.6,64.8 15.7,64.2 39,31 39,32.9 				"/>
				<polygon class="st188" points="15.7,64.2 15.2,63.8 15.2,63.2 39,29.2 39,31 				"/>
				<polygon class="st189" points="15.2,61.3 39,27.3 39,29.2 15.2,63.2 				"/>
				<polygon class="st190" points="15.2,59.5 38.4,26.3 39,26.7 39,27.3 15.2,61.3 				"/>
				<polygon class="st191" points="15.2,57.6 37.5,25.7 38.4,26.3 15.2,59.5 				"/>
				<polygon class="st192" points="15.2,55.7 36.7,25 37.5,25.7 15.2,57.6 				"/>
				<polygon class="st193" points="15.2,53.9 35.8,24.4 36.7,25 15.2,55.7 				"/>
				<polygon class="st194" points="15.2,52 34.9,23.8 35.8,24.4 15.2,53.9 				"/>
				<polygon class="st195" points="15.2,50.2 34.1,23.2 34.9,23.8 15.2,52 				"/>
				<polygon class="st196" points="15.2,48.3 33.2,22.6 34.1,23.2 15.2,50.2 				"/>
				<polygon class="st197" points="15.2,46.5 32.3,22 33.2,22.6 15.2,48.3 				"/>
				<polygon class="st198" points="15.2,44.6 31.5,21.4 32.3,22 15.2,46.5 				"/>
				<polygon class="st199" points="15.2,42.8 30.6,20.8 31.5,21.4 15.2,44.6 				"/>
				<polygon class="st200" points="15.2,40.9 29.7,20.2 30.6,20.8 15.2,42.8 				"/>
				<polygon class="st201" points="15.2,39.1 28.8,19.6 29.7,20.2 15.2,40.9 				"/>
				<polygon class="st202" points="15.2,37.2 28,18.9 28.8,19.6 15.2,39.1 				"/>
				<polygon class="st203" points="15.2,35.4 27.1,18.3 28,18.9 15.2,37.2 				"/>
				<polygon class="st204" points="15.2,33.5 26.2,17.7 27.1,18.3 15.2,35.4 				"/>
				<polygon class="st205" points="15.2,31.6 25.4,17.1 26.2,17.7 15.2,33.5 				"/>
				<polygon class="st206" points="15.2,29.8 24.5,16.5 25.4,17.1 15.2,31.6 				"/>
				<polygon class="st207" points="15.2,27.9 23.6,15.9 24.5,16.5 15.2,29.8 				"/>
				<polygon class="st208" points="15.2,26.1 22.7,15.3 23.6,15.9 15.2,27.9 				"/>
				<polygon class="st209" points="15.2,24.2 21.7,15 22.3,15 22.7,15.3 15.2,26.1 				"/>
				<polygon class="st210" points="15.2,22.4 20.4,15 21.7,15 15.2,24.2 				"/>
				<polygon class="st211" points="15.2,20.5 19.1,15 20.4,15 15.2,22.4 				"/>
				<polygon class="st212" points="15.2,18.7 17.8,15 19.1,15 15.2,20.5 				"/>
				<polygon class="st213" points="15.2,16.8 16.5,15 17.8,15 15.2,18.7 				"/>
				<polygon class="st214" points="15.2,15 15.2,15 16.5,15 15.2,16.8 				"/>
				<polygon class="st214" points="15.2,15 15.2,15 15.2,15 				"/>
			</g>
		</g>
	</g>
	<g class="st215">
		<g>
			<g>
				<defs>
					<polygon id="SVGID_9_" points="83,20.8 59.2,8.1 15.2,15 39,27.6 					"/>
				</defs>
				<clipPath id="SVGID_10_">
					<use xlink:href="#SVGID_9_"  style="overflow:visible;"/>
				</clipPath>
				<path class="st216" d="M83,27.6v-6.9V27.6z"/>
				<rect x="81.7" y="8.1" class="st216" width="1.3" height="19.5"/>
				<rect x="80.4" y="8.1" class="st217" width="1.3" height="19.5"/>
				<rect x="79.2" y="8.1" class="st218" width="1.3" height="19.5"/>
				<rect x="77.9" y="8.1" class="st219" width="1.3" height="19.5"/>
				<rect x="76.7" y="8.1" class="st220" width="1.3" height="19.5"/>
				<rect x="75.4" y="8.1" class="st221" width="1.3" height="19.5"/>
				<rect x="74.2" y="8.1" class="st222" width="1.3" height="19.5"/>
				<rect x="72.9" y="8.1" class="st223" width="1.3" height="19.5"/>
				<rect x="71.7" y="8.1" class="st224" width="1.3" height="19.5"/>
				<rect x="70.4" y="8.1" class="st225" width="1.3" height="19.5"/>
				<rect x="69.2" y="8.1" class="st226" width="1.3" height="19.5"/>
				<rect x="67.9" y="8.1" class="st227" width="1.3" height="19.5"/>
				<rect x="66.6" y="8.1" class="st228" width="1.3" height="19.5"/>
				<rect x="65.4" y="8.1" class="st229" width="1.3" height="19.5"/>
				<rect x="64.1" y="8.1" class="st230" width="1.3" height="19.5"/>
				<rect x="62.9" y="8.1" class="st231" width="1.3" height="19.5"/>
				<rect x="61.6" y="8.1" class="st232" width="1.3" height="19.5"/>
				<rect x="60.4" y="8.1" class="st233" width="1.3" height="19.5"/>
				<rect x="59.1" y="8.1" class="st234" width="1.3" height="19.5"/>
				<rect x="57.9" y="8.1" class="st235" width="1.3" height="19.5"/>
				<rect x="56.6" y="8.1" class="st236" width="1.3" height="19.5"/>
				<rect x="55.3" y="8.1" class="st237" width="1.3" height="19.5"/>
				<rect x="54.1" y="8.1" class="st238" width="1.3" height="19.5"/>
				<rect x="52.8" y="8.1" class="st239" width="1.3" height="19.5"/>
				<rect x="51.6" y="8.1" class="st240" width="1.3" height="19.5"/>
				<rect x="50.3" y="8.1" class="st241" width="1.3" height="19.5"/>
				<rect x="49.1" y="8.1" class="st242" width="1.3" height="19.5"/>
				<rect x="47.8" y="8.1" class="st243" width="1.3" height="19.5"/>
				<rect x="46.6" y="8.1" class="st244" width="1.3" height="19.5"/>
				<rect x="45.3" y="8.1" class="st245" width="1.3" height="19.5"/>
				<rect x="44.1" y="8.1" class="st246" width="1.3" height="19.5"/>
				<rect x="42.8" y="8.1" class="st247" width="1.3" height="19.5"/>
				<rect x="41.5" y="8.1" class="st248" width="1.3" height="19.5"/>
				<rect x="40.3" y="8.1" class="st249" width="1.3" height="19.5"/>
				<rect x="39" y="8.1" class="st250" width="1.3" height="19.5"/>
				<rect x="37.8" y="8.1" class="st251" width="1.3" height="19.5"/>
				<rect x="36.5" y="8.1" class="st252" width="1.3" height="19.5"/>
				<rect x="35.3" y="8.1" class="st253" width="1.3" height="19.5"/>
				<rect x="34" y="8.1" class="st254" width="1.3" height="19.5"/>
				<rect x="32.8" y="8.1" class="st255" width="1.3" height="19.5"/>
				<rect x="31.5" y="8.1" class="st256" width="1.3" height="19.5"/>
				<rect x="30.2" y="8.1" class="st257" width="1.3" height="19.5"/>
				<rect x="29" y="8.1" class="st258" width="1.3" height="19.5"/>
				<rect x="27.7" y="8.1" class="st259" width="1.3" height="19.5"/>
				<rect x="26.5" y="8.1" class="st260" width="1.3" height="19.5"/>
				<rect x="25.2" y="8.1" class="st261" width="1.3" height="19.5"/>
				<rect x="24" y="8.1" class="st262" width="1.3" height="19.5"/>
				<rect x="22.7" y="8.1" class="st263" width="1.3" height="19.5"/>
				<rect x="21.5" y="8.1" class="st264" width="1.3" height="19.5"/>
				<rect x="20.2" y="8.1" class="st265" width="1.3" height="19.5"/>
				<rect x="18.9" y="8.1" class="st266" width="1.3" height="19.5"/>
				<rect x="17.7" y="8.1" class="st267" width="1.3" height="19.5"/>
				<rect x="16.4" y="8.1" class="st268" width="1.3" height="19.5"/>
				<polygon class="st269" points="15.2,15 15.2,8.1 16.4,8.1 16.4,27.6 15.2,27.6 				"/>
				<path class="st269" d="M15.2,8.1V15V8.1z"/>
			</g>
		</g>
	</g>
	<g class="st215">
		<g>
			<g>
				<defs>
					<polygon id="SVGID_11_" points="39,27.6 39,75.5 83,68.7 83,20.8 					"/>
				</defs>
				<clipPath id="SVGID_12_">
					<use xlink:href="#SVGID_11_"  style="overflow:visible;"/>
				</clipPath>
				<polygon class="st270" points="77.2,75.5 83,68.7 83,75.5 				"/>
				<polygon class="st270" points="76.2,75.5 83,67.5 83,68.7 77.2,75.5 				"/>
				<polygon class="st271" points="75.3,75.5 83,66.3 83,67.5 76.2,75.5 				"/>
				<polygon class="st272" points="74.3,75.5 83,65.1 83,66.3 75.3,75.5 				"/>
				<polygon class="st273" points="73.3,75.5 83,64 83,65.1 74.3,75.5 				"/>
				<polygon class="st274" points="72.3,75.5 83,62.8 83,64 73.3,75.5 				"/>
				<polygon class="st275" points="71.3,75.5 83,61.6 83,62.8 72.3,75.5 				"/>
				<polygon class="st276" points="70.3,75.5 83,60.4 83,61.6 71.3,75.5 				"/>
				<polygon class="st277" points="69.3,75.5 83,59.3 83,60.4 70.3,75.5 				"/>
				<polygon class="st278" points="68.4,75.5 83,58.1 83,59.3 69.3,75.5 				"/>
				<polygon class="st279" points="67.4,75.5 83,56.9 83,58.1 68.4,75.5 				"/>
				<polygon class="st280" points="66.4,75.5 83,55.7 83,56.9 67.4,75.5 				"/>
				<polygon class="st281" points="65.4,75.5 83,54.6 83,55.7 66.4,75.5 				"/>
				<polygon class="st282" points="64.4,75.5 83,53.4 83,54.6 65.4,75.5 				"/>
				<polygon class="st283" points="63.4,75.5 83,52.2 83,53.4 64.4,75.5 				"/>
				<polygon class="st284" points="62.4,75.5 83,51 83,52.2 63.4,75.5 				"/>
				<polygon class="st285" points="61.5,75.5 83,49.9 83,51 62.4,75.5 				"/>
				<polygon class="st286" points="60.5,75.5 83,48.7 83,49.9 61.5,75.5 				"/>
				<polygon class="st287" points="59.5,75.5 83,47.5 83,48.7 60.5,75.5 				"/>
				<polygon class="st288" points="58.5,75.5 83,46.3 83,47.5 59.5,75.5 				"/>
				<polygon class="st289" points="57.5,75.5 83,45.2 83,46.3 58.5,75.5 				"/>
				<polygon class="st290" points="56.5,75.5 83,44 83,45.2 57.5,75.5 				"/>
				<polygon class="st291" points="55.6,75.5 83,42.8 83,44 56.5,75.5 				"/>
				<polygon class="st292" points="54.6,75.5 83,41.7 83,42.8 55.6,75.5 				"/>
				<polygon class="st293" points="53.6,75.5 83,40.5 83,41.7 54.6,75.5 				"/>
				<polygon class="st294" points="52.6,75.5 83,39.3 83,40.5 53.6,75.5 				"/>
				<polygon class="st295" points="51.6,75.5 83,38.1 83,39.3 52.6,75.5 				"/>
				<polygon class="st296" points="50.6,75.5 83,37 83,38.1 51.6,75.5 				"/>
				<polygon class="st297" points="49.6,75.5 83,35.8 83,37 50.6,75.5 				"/>
				<polygon class="st298" points="48.7,75.5 83,34.6 83,35.8 49.6,75.5 				"/>
				<polygon class="st299" points="47.7,75.5 83,33.4 83,34.6 48.7,75.5 				"/>
				<polygon class="st300" points="46.7,75.5 83,32.3 83,33.4 47.7,75.5 				"/>
				<polygon class="st301" points="45.7,75.5 83,31.1 83,32.3 46.7,75.5 				"/>
				<polygon class="st302" points="44.7,75.5 83,29.9 83,31.1 45.7,75.5 				"/>
				<polygon class="st303" points="43.7,75.5 83,28.7 83,29.9 44.7,75.5 				"/>
				<polygon class="st304" points="42.8,75.5 83,27.6 83,28.7 43.7,75.5 				"/>
				<polygon class="st305" points="41.8,75.5 83,26.4 83,27.6 42.8,75.5 				"/>
				<polygon class="st306" points="40.8,75.5 83,25.2 83,26.4 41.8,75.5 				"/>
				<polygon class="st307" points="39.8,75.5 83,24 83,25.2 40.8,75.5 				"/>
				<polygon class="st308" points="39,75.4 83,22.9 83,24 39.8,75.5 39,75.5 				"/>
				<polygon class="st309" points="39,74.2 83,21.7 83,22.9 39,75.4 				"/>
				<polygon class="st310" points="39,73 82.8,20.8 83,20.8 83,21.7 39,74.2 				"/>
				<polygon class="st311" points="39,71.8 81.8,20.8 82.8,20.8 39,73 				"/>
				<polygon class="st312" points="39,70.7 80.8,20.8 81.8,20.8 39,71.8 				"/>
				<polygon class="st313" points="39,69.5 79.8,20.8 80.8,20.8 39,70.7 				"/>
				<polygon class="st314" points="39,68.3 78.9,20.8 79.8,20.8 39,69.5 				"/>
				<polygon class="st315" points="39,67.1 77.9,20.8 78.9,20.8 39,68.3 				"/>
				<polygon class="st316" points="39,66 76.9,20.8 77.9,20.8 39,67.1 				"/>
				<polygon class="st317" points="39,64.8 75.9,20.8 76.9,20.8 39,66 				"/>
				<polygon class="st317" points="75.9,20.8 39,64.8 39,20.8 				"/>
			</g>
		</g>
	</g>
	<g>
		<g>
			<g>
				<path class="st0" d="M36.6,28.1c0-1.4,1.1-2.7,2.5-2.9l22.5-3.6v31.9c0,2.6-1.9,4.7-4.4,5.1L36.5,62L36.6,28.1z M56.7,27.3
					l-15.3,2.4l0,26.6l15.4-2.5V27.3z"/>
			</g>
		</g>
	</g>
	<g>
		<g>
			<rect x="36.6" y="48.3" class="st0" width="4.8" height="28.2"/>
		</g>
	</g>
	<g>
		<g>
			<rect x="59.2" y="3.9" class="st0" width="2.4" height="36.7"/>
		</g>
	</g>
	<g>
		<g>
			<path class="st0" d="M83,23.4v42.4c0,1.5-1.1,2.9-2.6,3.1l-35.3,5.7c-1.9,0.3-3.6-1.2-3.6-3.1v-7.6c0-1.5,1.1-2.9,2.6-3.1l14-2.2
				c2-0.3,3.5-2.1,3.5-4.1l0.2-39.7c0-2.4,2.5-3.9,4.6-2.8l14.3,7.7C82.1,20.4,83,21.8,83,23.4z M86.5,16L62.3,3
				c-0.8-0.6-1.9-0.1-1.9,0.9l-1.1,51c0,0.6-0.4,1.1-1,1.2L40,59c-0.6,0.1-1,0.6-1,1.2l0,18.7c0,0.7,0.7,1.3,1.4,1.2L86,71.8
				c0.6-0.1,1-0.6,1-1.2V17C87,16.6,86.8,16.3,86.5,16z"/>
		</g>
	</g>
	<g>
		<g>
			<path class="st0" d="M59.2,11.7l0,7.5c0,1.6-1.2,3-2.7,3.2l-17.1,2.8c-1.6,0.3-2.7,1.6-2.7,3.2l0,40.3c0,2.5-2.6,4-4.8,2.9
				l-14.8-7.9c-1.1-0.6-1.7-1.7-1.7-2.9V17.6c0-1.6,1.2-3,2.8-3.2l37.5-5.8C57.4,8.2,59.2,9.7,59.2,11.7z M58.8,2.6l-45.5,7.9
				c-0.8,0.1-1.4,0.8-1.4,1.6l-0.2,49.6c-0.1,0.7,0.3,1.3,0.9,1.6l25.2,15.4c1.2,0.6,2.6-0.2,2.5-1.6L39,29.3c0-0.9,0.6-1.7,1.5-1.8
				l18.5-2.1c0.9-0.1,1.5-0.8,1.5-1.7l0.2-19.4C60.8,3.3,59.8,2.4,58.8,2.6z"/>
		</g>
	</g>
	<g>
		<path class="st0" d="M47.5,43.8c-0.6,0-1.1-0.4-1.2-1c-0.1-0.7,0.3-1.3,1-1.4l10.1-1.6c0.7-0.1,1.3,0.3,1.4,1
			c0.1,0.7-0.3,1.3-1,1.4l-10.1,1.6C47.6,43.8,47.6,43.8,47.5,43.8z"/>
	</g>
	<g>
		<g>
			<path class="st0" d="M55.2,42.6L55.2,42.6c0.8-0.1,1.6,0.5,1.6,1.3v8.7l4.5,0V30.1l-4.5,0.2V38c0,1.1-0.8,2-1.8,2.2l-1.7,0.3
				L55.2,42.6z"/>
		</g>
	</g>
</g>
<g>
	<g>
		<polygon class="st318" points="112.5,28.8 112.5,37.1 125.6,37.1 125.6,41.2 112.5,41.2 112.5,49.5 125.6,49.5 125.6,53.6 
			108,53.6 108,24.7 125.6,24.7 125.6,28.8 		"/>
	</g>
	<g>
		<path class="st318" d="M147.2,38.3v14.2l-3.8,1.8h-0.6v-16c0-1.7-0.8-1.9-1.5-1.9h-4.3c-0.7,0-1.5,0.2-1.5,1.9v14.2l-3.8,1.8H131
			v-16c0-4,2-6,6-6h4.3C145.2,32.3,147.2,34.3,147.2,38.3z"/>
	</g>
	<g>
		<polygon class="st318" points="161.5,32.3 161.5,32.9 159.8,36.4 156.7,36.4 156.7,52.5 152.8,54.3 152.2,54.3 152.2,27.7 
			156,25.9 156.7,25.9 156.7,32.3 		"/>
	</g>
	<g>
		<path class="st318" d="M174.6,32.3h-4.3c-4,0-6,2-6,6v9.3c0,4,2,6,6,6h4.3c0.6,0,1.1-0.1,1.5-0.3v2c0,1.7-0.8,1.9-1.5,1.9h-10.3
			v4.1h10.3c4,0,6-2,6-6v-17C180.5,34.3,178.5,32.3,174.6,32.3z M176.1,47.6c0,1.7-0.8,1.9-1.5,1.9h-4.3c-0.7,0-1.5-0.2-1.5-1.9
			v-9.3c0-1.7,0.8-1.9,1.5-1.9h4.3c0.7,0,1.5,0.2,1.5,1.9V47.6z"/>
		<path class="st318" d="M197,32.3v0.6l-1.6,3.5H192c-0.7,0-1.5,0.2-1.5,1.9v14.2l-3.8,1.8H186v-16c0-4,2-6,6-6H197z"/>
	</g>
	<g>
		<path class="st318" d="M208,32.3h-7v4.1h7c0.7,0,1.5,0.2,1.5,1.9v1.1c-0.5-0.2-1-0.3-1.5-0.3h-3.9c-4,0-6,2-6,6v2.6c0,4,2,6,6,6
			h3.9c0.6,0,1.1-0.1,1.5-0.3v1.4h0.6l3.8-1.8V38.3C214,34.3,212,32.3,208,32.3z M208,49.5h-3.9c-0.7,0-1.5-0.2-1.5-1.9V45
			c0-1.7,0.8-1.9,1.5-1.9h3.9c0.7,0,1.5,0.2,1.5,1.9v2.6C209.5,49.3,208.7,49.5,208,49.5z"/>
	</g>
</g>
</svg>
