<svg id="Layer_1" data-name="Layer 1" xmlns="http://www.w3.org/2000/svg" xmlns:xlink="http://www.w3.org/1999/xlink" viewBox="0 0 123 126.69"><defs><clipPath id="clip-path"><polygon points="5.74 20.37 5.74 98.59 77.6 87.32 77.6 9.1 5.74 20.37" fill="none"/></clipPath><clipPath id="clip-path-51"><polygon points="116.46 108.06 116.46 29.84 77.6 9.1 77.6 87.32 116.46 108.06" fill="none"/></clipPath><clipPath id="clip-path-116"><polygon points="44.61 119.17 116.46 108.06 77.6 87.32 5.74 98.59 44.61 119.17" fill="none"/></clipPath><clipPath id="clip-path-169"><polygon points="44.61 40.94 5.74 20.37 5.74 98.59 44.61 119.17 44.61 40.94" fill="none"/></clipPath><clipPath id="clip-path-221"><polygon points="116.46 29.84 77.6 9.1 5.74 20.37 44.61 40.94 116.46 29.84" fill="none"/></clipPath><clipPath id="clip-path-277"><polygon points="44.61 40.94 44.61 119.17 116.46 108.06 116.46 29.84 44.61 40.94" fill="none"/></clipPath></defs><title>logo</title><g clip-path="url(#clip-path)"><polygon points="73.51 98.59 77.6 87.32 77.6 98.59 73.51 98.59" fill="#3b89c9"/></g><g clip-path="url(#clip-path)"><polygon points="71.88 98.59 77.6 82.59 77.6 87.32 73.51 98.59 71.88 98.59" fill="#3b89c9"/></g><g clip-path="url(#clip-path)"><polygon points="70.08 98.59 77.6 78.02 77.6 82.59 71.88 98.59 70.08 98.59" fill="#3b8bca"/></g><g clip-path="url(#clip-path)"><polygon points="68.45 98.59 77.6 73.28 77.6 78.02 70.08 98.59 68.45 98.59" fill="#3c8bcb"/></g><g clip-path="url(#clip-path)"><polygon points="66.82 98.59 77.6 68.71 77.6 73.28 68.45 98.59 66.82 98.59" fill="#3c8dcc"/></g><g clip-path="url(#clip-path)"><polygon points="65.02 98.59 77.6 63.97 77.6 68.71 66.82 98.59 65.02 98.59" fill="#3d8ecc"/></g><g clip-path="url(#clip-path)"><polygon points="63.39 98.59 77.6 59.4 77.6 63.97 65.02 98.59 63.39 98.59" fill="#3d90ce"/></g><g clip-path="url(#clip-path)"><polygon points="61.59 98.59 77.6 54.66 77.6 59.4 63.39 98.59 61.59 98.59" fill="#3f90ce"/></g><g clip-path="url(#clip-path)"><polygon points="59.96 98.59 77.6 49.93 77.6 54.66 61.59 98.59 59.96 98.59" fill="#3f92cf"/></g><g clip-path="url(#clip-path)"><polygon points="58.33 98.59 77.6 45.35 77.6 49.93 59.96 98.59 58.33 98.59" fill="#4092cf"/></g><g clip-path="url(#clip-path)"><polygon points="56.53 98.59 77.6 40.62 77.6 45.35 58.33 98.59 56.53 98.59" fill="#4194d0"/></g><g clip-path="url(#clip-path)"><polygon points="54.9 98.59 77.6 36.05 77.6 40.62 56.53 98.59 54.9 98.59" fill="#4294d1"/></g><g clip-path="url(#clip-path)"><polygon points="53.1 98.59 77.6 31.31 77.6 36.05 54.9 98.59 53.1 98.59" fill="#4296d2"/></g><g clip-path="url(#clip-path)"><polygon points="51.47 98.59 77.6 26.74 77.6 31.31 53.1 98.59 51.47 98.59" fill="#4397d2"/></g><g clip-path="url(#clip-path)"><polygon points="49.83 98.59 77.6 22 77.6 26.74 51.47 98.59 49.83 98.59" fill="#4498d3"/></g><g clip-path="url(#clip-path)"><polygon points="48.04 98.59 77.6 17.43 77.6 22 49.83 98.59 48.04 98.59" fill="#4499d4"/></g><g clip-path="url(#clip-path)"><polygon points="46.4 98.59 77.6 12.69 77.6 17.43 48.04 98.59 46.4 98.59" fill="#459ad4"/></g><g clip-path="url(#clip-path)"><polygon points="44.61 98.59 77.27 9.1 77.6 9.1 77.6 12.69 46.4 98.59 44.61 98.59" fill="#479ad5"/></g><g clip-path="url(#clip-path)"><polygon points="42.98 98.59 75.47 9.1 77.27 9.1 44.61 98.59 42.98 98.59" fill="#499bd5"/></g><g clip-path="url(#clip-path)"><polygon points="41.34 98.59 73.84 9.1 75.47 9.1 42.98 98.59 41.34 98.59" fill="#489cd6"/></g><g clip-path="url(#clip-path)"><polygon points="39.55 98.59 72.21 9.1 73.84 9.1 41.34 98.59 39.55 98.59" fill="#499dd6"/></g><g clip-path="url(#clip-path)"><polygon points="37.91 98.59 70.41 9.1 72.21 9.1 39.55 98.59 37.91 98.59" fill="#4a9ed7"/></g><g clip-path="url(#clip-path)"><polygon points="36.12 98.59 68.78 9.1 70.41 9.1 37.91 98.59 36.12 98.59" fill="#4aa0d8"/></g><g clip-path="url(#clip-path)"><polygon points="34.48 98.59 66.98 9.1 68.78 9.1 36.12 98.59 34.48 98.59" fill="#4ca0d8"/></g><g clip-path="url(#clip-path)"><polygon points="32.85 98.59 65.35 9.1 66.98 9.1 34.48 98.59 32.85 98.59" fill="#4ca1d9"/></g><g clip-path="url(#clip-path)"><polygon points="31.05 98.59 63.72 9.1 65.35 9.1 32.85 98.59 31.05 98.59" fill="#4ea3db"/></g><g clip-path="url(#clip-path)"><polygon points="29.42 98.59 61.92 9.1 63.72 9.1 31.05 98.59 29.42 98.59" fill="#4fa4db"/></g><g clip-path="url(#clip-path)"><polygon points="27.79 98.59 60.29 9.1 61.92 9.1 29.42 98.59 27.79 98.59" fill="#50a5db"/></g><g clip-path="url(#clip-path)"><polygon points="25.99 98.59 58.49 9.1 60.29 9.1 27.79 98.59 25.99 98.59" fill="#51a6dc"/></g><g clip-path="url(#clip-path)"><polygon points="24.36 98.59 56.86 9.1 58.49 9.1 25.99 98.59 24.36 98.59" fill="#52a7dd"/></g><g clip-path="url(#clip-path)"><polygon points="22.56 98.59 55.22 9.1 56.86 9.1 24.36 98.59 22.56 98.59" fill="#51a8de"/></g><g clip-path="url(#clip-path)"><polygon points="20.93 98.59 53.43 9.1 55.22 9.1 22.56 98.59 20.93 98.59" fill="#51a9df"/></g><g clip-path="url(#clip-path)"><polygon points="19.3 98.59 51.79 9.1 53.43 9.1 20.93 98.59 19.3 98.59" fill="#52aadf"/></g><g clip-path="url(#clip-path)"><polygon points="17.5 98.59 50 9.1 51.79 9.1 19.3 98.59 17.5 98.59" fill="#53abdf"/></g><g clip-path="url(#clip-path)"><polygon points="15.87 98.59 48.36 9.1 50 9.1 17.5 98.59 15.87 98.59" fill="#54ace0"/></g><g clip-path="url(#clip-path)"><polygon points="14.07 98.59 46.73 9.1 48.36 9.1 15.87 98.59 14.07 98.59" fill="#55ade1"/></g><g clip-path="url(#clip-path)"><polygon points="12.44 98.59 44.94 9.1 46.73 9.1 14.07 98.59 12.44 98.59" fill="#56aee1"/></g><g clip-path="url(#clip-path)"><polygon points="10.8 98.59 43.3 9.1 44.94 9.1 12.44 98.59 10.8 98.59" fill="#57afe2"/></g><g clip-path="url(#clip-path)"><polygon points="9.01 98.59 41.51 9.1 43.3 9.1 10.8 98.59 9.01 98.59" fill="#58b0e3"/></g><g clip-path="url(#clip-path)"><polygon points="7.37 98.59 39.87 9.1 41.51 9.1 9.01 98.59 7.37 98.59" fill="#58b1e4"/></g><g clip-path="url(#clip-path)"><polygon points="5.74 98.27 38.24 9.1 39.87 9.1 7.37 98.59 5.74 98.59 5.74 98.27" fill="#5ab3e5"/></g><g clip-path="url(#clip-path)"><polygon points="5.74 93.69 36.44 9.1 38.24 9.1 5.74 98.27 5.74 93.69" fill="#5db4e5"/></g><g clip-path="url(#clip-path)"><polygon points="5.74 88.96 34.81 9.1 36.44 9.1 5.74 93.69 5.74 88.96" fill="#5cb5e5"/></g><g clip-path="url(#clip-path)"><polygon points="5.74 84.38 33.18 9.1 34.81 9.1 5.74 88.96 5.74 84.38" fill="#5db5e6"/></g><g clip-path="url(#clip-path)"><polygon points="5.74 79.65 31.38 9.1 33.18 9.1 5.74 84.38 5.74 79.65" fill="#5eb7e7"/></g><g clip-path="url(#clip-path)"><polygon points="5.74 75.08 29.75 9.1 31.38 9.1 5.74 79.65 5.74 75.08" fill="#60b8e7"/></g><g clip-path="url(#clip-path)"><polygon points="5.74 70.34 27.95 9.1 29.75 9.1 5.74 75.08 5.74 70.34" fill="#60b9e8"/></g><g clip-path="url(#clip-path)"><polygon points="5.74 65.6 26.32 9.1 27.95 9.1 5.74 70.34 5.74 65.6" fill="#61bae9"/></g><g clip-path="url(#clip-path)"><polygon points="5.74 61.03 24.68 9.1 26.32 9.1 5.74 65.6 5.74 61.03" fill="#62bbe9"/></g><g clip-path="url(#clip-path)"><polygon points="24.68 9.1 5.74 61.03 5.74 9.1 24.68 9.1" fill="#62bbe9"/></g><g clip-path="url(#clip-path-51)"><polygon points="116.46 29.84 108.95 9.1 116.46 9.1 116.46 29.84" fill="#305f88"/></g><g clip-path="url(#clip-path-51)"><polygon points="116.46 31.8 108.14 9.1 108.95 9.1 116.46 29.84 116.46 31.8" fill="#305f88"/></g><g clip-path="url(#clip-path-51)"><polygon points="116.46 33.6 107.48 9.1 108.14 9.1 116.46 31.8 116.46 33.6" fill="#2f6089"/></g><g clip-path="url(#clip-path-51)"><polygon points="116.46 35.55 106.83 9.1 107.48 9.1 116.46 33.6 116.46 35.55" fill="#31608a"/></g><g clip-path="url(#clip-path-51)"><polygon points="116.46 37.35 106.17 9.1 106.83 9.1 116.46 35.55 116.46 37.35" fill="#30618b"/></g><g clip-path="url(#clip-path-51)"><polygon points="116.46 39.31 105.52 9.1 106.17 9.1 116.46 37.35 116.46 39.31" fill="#31628c"/></g><g clip-path="url(#clip-path-51)"><polygon points="116.46 41.11 104.87 9.1 105.52 9.1 116.46 39.31 116.46 41.11" fill="#30638d"/></g><g clip-path="url(#clip-path-51)"><polygon points="116.46 42.9 104.05 9.1 104.87 9.1 116.46 41.11 116.46 42.9" fill="#31638e"/></g><g clip-path="url(#clip-path-51)"><polygon points="116.46 44.86 103.4 9.1 104.05 9.1 116.46 42.9 116.46 44.86" fill="#32648f"/></g><g clip-path="url(#clip-path-51)"><polygon points="116.46 46.66 102.75 9.1 103.4 9.1 116.46 44.86 116.46 46.66" fill="#316590"/></g><g clip-path="url(#clip-path-51)"><polygon points="116.46 48.62 102.09 9.1 102.75 9.1 116.46 46.66 116.46 48.62" fill="#336691"/></g><g clip-path="url(#clip-path-51)"><polygon points="116.46 50.42 101.44 9.1 102.09 9.1 116.46 48.62 116.46 50.42" fill="#336692"/></g><g clip-path="url(#clip-path-51)"><polygon points="116.46 52.38 100.79 9.1 101.44 9.1 116.46 50.42 116.46 52.38" fill="#356793"/></g><g clip-path="url(#clip-path-51)"><polygon points="116.46 54.17 99.97 9.1 100.79 9.1 116.46 52.38 116.46 54.17" fill="#346894"/></g><g clip-path="url(#clip-path-51)"><polygon points="116.46 56.13 99.32 9.1 99.97 9.1 116.46 54.17 116.46 56.13" fill="#346995"/></g><g clip-path="url(#clip-path-51)"><polygon points="116.46 57.93 98.66 9.1 99.32 9.1 116.46 56.13 116.46 57.93" fill="#356996"/></g><g clip-path="url(#clip-path-51)"><polygon points="116.46 59.73 98.01 9.1 98.66 9.1 116.46 57.93 116.46 59.73" fill="#376a96"/></g><g clip-path="url(#clip-path-51)"><polygon points="116.46 61.69 97.36 9.1 98.01 9.1 116.46 59.73 116.46 61.69" fill="#376b98"/></g><g clip-path="url(#clip-path-51)"><polygon points="116.46 63.48 96.7 9.1 97.36 9.1 116.46 61.69 116.46 63.48" fill="#376b98"/></g><g clip-path="url(#clip-path-51)"><polygon points="116.46 65.44 95.89 9.1 96.7 9.1 116.46 63.48 116.46 65.44" fill="#376c9a"/></g><g clip-path="url(#clip-path-51)"><polygon points="116.46 67.24 95.23 9.1 95.89 9.1 116.46 65.44 116.46 67.24" fill="#396d9b"/></g><g clip-path="url(#clip-path-51)"><polygon points="116.46 69.2 94.58 9.1 95.23 9.1 116.46 67.24 116.46 69.2" fill="#396e9c"/></g><g clip-path="url(#clip-path-51)"><polygon points="116.46 70.99 93.93 9.1 94.58 9.1 116.46 69.2 116.46 70.99" fill="#386e9c"/></g><g clip-path="url(#clip-path-51)"><polygon points="116.46 72.95 93.27 9.1 93.93 9.1 116.46 70.99 116.46 72.95" fill="#3a6f9e"/></g><g clip-path="url(#clip-path-51)"><polygon points="116.46 74.75 92.62 9.1 93.27 9.1 116.46 72.95 116.46 74.75" fill="#39709f"/></g><g clip-path="url(#clip-path-51)"><polygon points="116.46 76.71 91.8 9.1 92.62 9.1 116.46 74.75 116.46 76.71" fill="#3a71a0"/></g><g clip-path="url(#clip-path-51)"><polygon points="116.46 78.5 91.15 9.1 91.8 9.1 116.46 76.71 116.46 78.5" fill="#3b71a1"/></g><g clip-path="url(#clip-path-51)"><polygon points="116.46 80.3 90.5 9.1 91.15 9.1 116.46 78.5 116.46 80.3" fill="#3b71a2"/></g><g clip-path="url(#clip-path-51)"><polygon points="116.46 82.26 89.84 9.1 90.5 9.1 116.46 80.3 116.46 82.26" fill="#3b73a4"/></g><g clip-path="url(#clip-path-51)"><polygon points="116.46 84.06 89.19 9.1 89.84 9.1 116.46 82.26 116.46 84.06" fill="#3a74a4"/></g><g clip-path="url(#clip-path-51)"><polygon points="116.46 86.02 88.54 9.1 89.19 9.1 116.46 84.06 116.46 86.02" fill="#3d75a5"/></g><g clip-path="url(#clip-path-51)"><polygon points="116.46 87.81 87.72 9.1 88.54 9.1 116.46 86.02 116.46 87.81" fill="#3c75a6"/></g><g clip-path="url(#clip-path-51)"><polygon points="116.46 89.77 87.07 9.1 87.72 9.1 116.46 87.81 116.46 89.77" fill="#3d76a8"/></g><g clip-path="url(#clip-path-51)"><polygon points="116.46 91.57 86.42 9.1 87.07 9.1 116.46 89.77 116.46 91.57" fill="#3e77a9"/></g><g clip-path="url(#clip-path-51)"><polygon points="116.46 93.53 85.76 9.1 86.42 9.1 116.46 91.57 116.46 93.53" fill="#3d77aa"/></g><g clip-path="url(#clip-path-51)"><polygon points="116.46 95.33 85.11 9.1 85.76 9.1 116.46 93.53 116.46 95.33" fill="#3e78ab"/></g><g clip-path="url(#clip-path-51)"><polygon points="116.46 97.12 84.29 9.1 85.11 9.1 116.46 95.33 116.46 97.12" fill="#3f79ac"/></g><g clip-path="url(#clip-path-51)"><polygon points="116.46 99.08 83.64 9.1 84.29 9.1 116.46 97.12 116.46 99.08" fill="#3f7aad"/></g><g clip-path="url(#clip-path-51)"><polygon points="116.46 100.88 82.98 9.1 83.64 9.1 116.46 99.08 116.46 100.88" fill="#3f7aad"/></g><g clip-path="url(#clip-path-51)"><polygon points="116.46 102.84 82.33 9.1 82.98 9.1 116.46 100.88 116.46 102.84" fill="#407bae"/></g><g clip-path="url(#clip-path-51)"><polygon points="116.46 104.64 81.68 9.1 82.33 9.1 116.46 102.84 116.46 104.64" fill="#417cb0"/></g><g clip-path="url(#clip-path-51)"><polygon points="116.46 106.59 81.03 9.1 81.68 9.1 116.46 104.64 116.46 106.59" fill="#427db1"/></g><g clip-path="url(#clip-path-51)"><polygon points="116.3 108.06 80.21 9.1 81.03 9.1 116.46 106.59 116.46 108.06 116.3 108.06" fill="#417db2"/></g><g clip-path="url(#clip-path-51)"><polygon points="115.65 108.06 79.56 9.1 80.21 9.1 116.3 108.06 115.65 108.06" fill="#427eb3"/></g><g clip-path="url(#clip-path-51)"><polygon points="114.99 108.06 78.9 9.1 79.56 9.1 115.65 108.06 114.99 108.06" fill="#447fb4"/></g><g clip-path="url(#clip-path-51)"><polygon points="114.18 108.06 78.25 9.1 78.9 9.1 114.99 108.06 114.18 108.06" fill="#4380b5"/></g><g clip-path="url(#clip-path-51)"><polygon points="113.52 108.06 77.6 9.1 77.6 9.1 78.25 9.1 114.18 108.06 113.52 108.06" fill="#4480b6"/></g><g clip-path="url(#clip-path-51)"><polygon points="112.87 108.06 77.6 11.06 77.6 9.1 113.52 108.06 112.87 108.06" fill="#4481b6"/></g><g clip-path="url(#clip-path-51)"><polygon points="112.22 108.06 77.6 12.86 77.6 11.06 112.87 108.06 112.22 108.06" fill="#4482b8"/></g><g clip-path="url(#clip-path-51)"><polygon points="111.56 108.06 77.6 14.81 77.6 12.86 112.22 108.06 111.56 108.06" fill="#4583b9"/></g><g clip-path="url(#clip-path-51)"><polygon points="110.91 108.06 77.6 16.61 77.6 14.81 111.56 108.06 110.91 108.06" fill="#4483ba"/></g><g clip-path="url(#clip-path-51)"><polygon points="110.09 108.06 77.6 18.41 77.6 16.61 110.91 108.06 110.09 108.06" fill="#4784ba"/></g><g clip-path="url(#clip-path-51)"><polygon points="109.44 108.06 77.6 20.37 77.6 18.41 110.09 108.06 109.44 108.06" fill="#4685bc"/></g><g clip-path="url(#clip-path-51)"><polygon points="108.79 108.06 77.6 22.16 77.6 20.37 109.44 108.06 108.79 108.06" fill="#4685bc"/></g><g clip-path="url(#clip-path-51)"><polygon points="108.14 108.06 77.6 24.12 77.6 22.16 108.79 108.06 108.14 108.06" fill="#4686bd"/></g><g clip-path="url(#clip-path-51)"><polygon points="107.48 108.06 77.6 25.92 77.6 24.12 108.14 108.06 107.48 108.06" fill="#4887bf"/></g><g clip-path="url(#clip-path-51)"><polygon points="106.83 108.06 77.6 27.88 77.6 25.92 107.48 108.06 106.83 108.06" fill="#4788c0"/></g><g clip-path="url(#clip-path-51)"><polygon points="106.01 108.06 77.6 29.68 77.6 27.88 106.83 108.06 106.01 108.06" fill="#4789c1"/></g><g clip-path="url(#clip-path-51)"><polygon points="105.36 108.06 77.6 31.64 77.6 29.68 106.01 108.06 105.36 108.06" fill="#4789c2"/></g><g clip-path="url(#clip-path-51)"><polygon points="104.7 108.06 77.6 33.43 77.6 31.64 105.36 108.06 104.7 108.06" fill="#4889c3"/></g><g clip-path="url(#clip-path-51)"><polygon points="104.05 108.06 77.6 35.23 77.6 33.43 104.7 108.06 104.05 108.06" fill="#488ac4"/></g><g clip-path="url(#clip-path-51)"><polygon points="103.4 108.06 77.6 37.19 77.6 35.23 104.05 108.06 103.4 108.06" fill="#498cc5"/></g><g clip-path="url(#clip-path-51)"><polygon points="102.75 108.06 77.6 38.98 77.6 37.19 103.4 108.06 102.75 108.06" fill="#4a8cc6"/></g><g clip-path="url(#clip-path-51)"><polygon points="101.93 108.06 77.6 40.94 77.6 38.98 102.75 108.06 101.93 108.06" fill="#498cc7"/></g><g clip-path="url(#clip-path-51)"><polygon points="77.6 40.94 101.93 108.06 77.6 108.06 77.6 40.94" fill="#498cc7"/></g><g clip-path="url(#clip-path-116)"><path d="M116.46,119.17v0Z" fill="#71c8b7"/></g><g clip-path="url(#clip-path-116)"><rect x="114.99" y="87.32" width="1.47" height="31.85" fill="#71c8b7"/></g><g clip-path="url(#clip-path-116)"><rect x="113.52" y="87.32" width="1.47" height="31.85" fill="#71c8b7"/></g><g clip-path="url(#clip-path-116)"><rect x="112.05" y="87.32" width="1.47" height="31.85" fill="#6fc8b8"/></g><g clip-path="url(#clip-path-116)"><rect x="110.58" y="87.32" width="1.47" height="31.85" fill="#6fc8b9"/></g><g clip-path="url(#clip-path-116)"><rect x="109.11" y="87.32" width="1.47" height="31.85" fill="#6ec8b9"/></g><g clip-path="url(#clip-path-116)"><rect x="107.64" y="87.32" width="1.47" height="31.85" fill="#6dc8ba"/></g><g clip-path="url(#clip-path-116)"><rect x="106.18" y="87.32" width="1.47" height="31.85" fill="#6cc7ba"/></g><g clip-path="url(#clip-path-116)"><rect x="104.71" y="87.32" width="1.47" height="31.85" fill="#6bc7bb"/></g><g clip-path="url(#clip-path-116)"><rect x="103.24" y="87.32" width="1.47" height="31.85" fill="#6bc7bb"/></g><g clip-path="url(#clip-path-116)"><rect x="101.77" y="87.32" width="1.47" height="31.85" fill="#69c7bb"/></g><g clip-path="url(#clip-path-116)"><rect x="100.3" y="87.32" width="1.47" height="31.85" fill="#69c7bd"/></g><g clip-path="url(#clip-path-116)"><rect x="98.83" y="87.32" width="1.47" height="31.85" fill="#69c7bd"/></g><g clip-path="url(#clip-path-116)"><rect x="97.36" y="87.32" width="1.47" height="31.85" fill="#68c7bd"/></g><g clip-path="url(#clip-path-116)"><rect x="95.89" y="87.32" width="1.47" height="31.85" fill="#67c7be"/></g><g clip-path="url(#clip-path-116)"><rect x="94.42" y="87.32" width="1.47" height="31.85" fill="#66c6bf"/></g><g clip-path="url(#clip-path-116)"><rect x="92.95" y="87.32" width="1.47" height="31.85" fill="#66c7c0"/></g><g clip-path="url(#clip-path-116)"><rect x="91.48" y="87.32" width="1.47" height="31.85" fill="#64c6c0"/></g><g clip-path="url(#clip-path-116)"><rect x="90.01" y="87.32" width="1.47" height="31.85" fill="#63c6c1"/></g><g clip-path="url(#clip-path-116)"><rect x="88.54" y="87.32" width="1.47" height="31.85" fill="#63c6c1"/></g><g clip-path="url(#clip-path-116)"><rect x="87.07" y="87.32" width="1.47" height="31.85" fill="#62c6c3"/></g><g clip-path="url(#clip-path-116)"><rect x="85.6" y="87.32" width="1.47" height="31.85" fill="#61c6c3"/></g><g clip-path="url(#clip-path-116)"><rect x="84.13" y="87.32" width="1.47" height="31.85" fill="#61c6c3"/></g><g clip-path="url(#clip-path-116)"><rect x="82.66" y="87.32" width="1.47" height="31.85" fill="#60c6c4"/></g><g clip-path="url(#clip-path-116)"><rect x="81.19" y="87.32" width="1.47" height="31.85" fill="#5fc6c4"/></g><g clip-path="url(#clip-path-116)"><rect x="79.72" y="87.32" width="1.47" height="31.85" fill="#5ec6c5"/></g><g clip-path="url(#clip-path-116)"><rect x="78.25" y="87.32" width="1.47" height="31.85" fill="#5ec6c7"/></g><g clip-path="url(#clip-path-116)"><rect x="76.78" y="87.32" width="1.47" height="31.85" fill="#5dc5c6"/></g><g clip-path="url(#clip-path-116)"><rect x="75.31" y="87.32" width="1.47" height="31.85" fill="#5bc5c7"/></g><g clip-path="url(#clip-path-116)"><rect x="73.84" y="87.32" width="1.47" height="31.85" fill="#5bc5c7"/></g><g clip-path="url(#clip-path-116)"><rect x="72.37" y="87.32" width="1.47" height="31.85" fill="#59c5c8"/></g><g clip-path="url(#clip-path-116)"><rect x="70.9" y="87.32" width="1.47" height="31.85" fill="#59c5c8"/></g><g clip-path="url(#clip-path-116)"><rect x="69.43" y="87.32" width="1.47" height="31.85" fill="#59c5c9"/></g><g clip-path="url(#clip-path-116)"><rect x="67.96" y="87.32" width="1.47" height="31.85" fill="#57c5ca"/></g><g clip-path="url(#clip-path-116)"><rect x="66.49" y="87.32" width="1.47" height="31.85" fill="#57c5ca"/></g><g clip-path="url(#clip-path-116)"><rect x="65.02" y="87.32" width="1.47" height="31.85" fill="#55c5cc"/></g><g clip-path="url(#clip-path-116)"><rect x="63.55" y="87.32" width="1.47" height="31.85" fill="#55c5cc"/></g><g clip-path="url(#clip-path-116)"><rect x="62.08" y="87.32" width="1.47" height="31.85" fill="#55c5cc"/></g><g clip-path="url(#clip-path-116)"><rect x="60.61" y="87.32" width="1.47" height="31.85" fill="#53c5cd"/></g><g clip-path="url(#clip-path-116)"><rect x="59.14" y="87.32" width="1.47" height="31.85" fill="#52c5ce"/></g><g clip-path="url(#clip-path-116)"><rect x="57.67" y="87.32" width="1.47" height="31.85" fill="#52c5cf"/></g><g clip-path="url(#clip-path-116)"><rect x="56.2" y="87.32" width="1.47" height="31.85" fill="#50c4cf"/></g><g clip-path="url(#clip-path-116)"><rect x="54.73" y="87.32" width="1.47" height="31.85" fill="#51c5d0"/></g><g clip-path="url(#clip-path-116)"><rect x="53.26" y="87.32" width="1.47" height="31.85" fill="#4fc4d1"/></g><g clip-path="url(#clip-path-116)"><rect x="51.79" y="87.32" width="1.47" height="31.85" fill="#4fc5d2"/></g><g clip-path="url(#clip-path-116)"><rect x="50.32" y="87.32" width="1.47" height="31.85" fill="#4dc4d3"/></g><g clip-path="url(#clip-path-116)"><rect x="48.85" y="87.32" width="1.47" height="31.85" fill="#4dc4d3"/></g><g clip-path="url(#clip-path-116)"><rect x="47.38" y="87.32" width="1.47" height="31.85" fill="#4cc4d4"/></g><g clip-path="url(#clip-path-116)"><rect x="45.91" y="87.32" width="1.47" height="31.85" fill="#4cc4d4"/></g><g clip-path="url(#clip-path-116)"><rect x="44.44" y="87.32" width="1.47" height="31.85" fill="#4cc4d5"/></g><g clip-path="url(#clip-path-116)"><rect x="42.97" y="87.32" width="1.47" height="31.85" fill="#4ac4d5"/></g><g clip-path="url(#clip-path-116)"><rect x="41.51" y="87.32" width="1.47" height="31.85" fill="#49c4d7"/></g><g clip-path="url(#clip-path-116)"><rect x="5.74" y="87.32" width="35.76" height="31.85" fill="#49c4d7"/></g><g opacity="0.4"><g clip-path="url(#clip-path-169)"><polygon points="42.48 119.17 44.61 116.23 44.61 119.17 42.48 119.17" fill="#71c8b7"/></g><g clip-path="url(#clip-path-169)"><polygon points="40.36 119.17 44.61 113.13 44.61 116.23 42.48 119.17 40.36 119.17" fill="#71c8b7"/></g><g clip-path="url(#clip-path-169)"><polygon points="38.24 119.17 44.61 110.19 44.61 113.13 40.36 119.17 38.24 119.17" fill="#6fc8b8"/></g><g clip-path="url(#clip-path-169)"><polygon points="36.12 119.17 44.61 107.08 44.61 110.19 38.24 119.17 36.12 119.17" fill="#6fc8b9"/></g><g clip-path="url(#clip-path-169)"><polygon points="33.99 119.17 44.61 103.98 44.61 107.08 36.12 119.17 33.99 119.17" fill="#6ec8b9"/></g><g clip-path="url(#clip-path-169)"><polygon points="33.01 119.17 32.2 118.68 44.61 101.04 44.61 103.98 33.99 119.17 33.01 119.17" fill="#6dc8ba"/></g><g clip-path="url(#clip-path-169)"><polygon points="32.2 118.68 30.73 117.7 44.61 97.94 44.61 101.04 32.2 118.68" fill="#6cc7ba"/></g><g clip-path="url(#clip-path-169)"><polygon points="30.73 117.7 29.42 116.72 44.61 95 44.61 97.94 30.73 117.7" fill="#6bc7bb"/></g><g clip-path="url(#clip-path-169)"><polygon points="29.42 116.72 27.95 115.74 44.61 91.9 44.61 95 29.42 116.72" fill="#6bc7bb"/></g><g clip-path="url(#clip-path-169)"><polygon points="27.95 115.74 26.48 114.76 44.61 88.96 44.61 91.9 27.95 115.74" fill="#69c7bb"/></g><g clip-path="url(#clip-path-169)"><polygon points="26.48 114.76 25.17 113.62 44.61 85.85 44.61 88.96 26.48 114.76" fill="#69c7bd"/></g><g clip-path="url(#clip-path-169)"><polygon points="25.17 113.62 23.7 112.64 44.61 82.92 44.61 85.85 25.17 113.62" fill="#69c7bd"/></g><g clip-path="url(#clip-path-169)"><polygon points="23.7 112.64 22.23 111.66 44.61 79.81 44.61 82.92 23.7 112.64" fill="#68c7bd"/></g><g clip-path="url(#clip-path-169)"><polygon points="22.23 111.66 20.77 110.68 44.61 76.87 44.61 79.81 22.23 111.66" fill="#67c7be"/></g><g clip-path="url(#clip-path-169)"><polygon points="20.77 110.68 19.46 109.7 44.61 73.77 44.61 76.87 20.77 110.68" fill="#66c6bf"/></g><g clip-path="url(#clip-path-169)"><polygon points="19.46 109.7 17.99 108.72 44.61 70.83 44.61 73.77 19.46 109.7" fill="#66c7c0"/></g><g clip-path="url(#clip-path-169)"><polygon points="17.99 108.72 16.52 107.74 44.61 67.73 44.61 70.83 17.99 108.72" fill="#64c6c0"/></g><g clip-path="url(#clip-path-169)"><polygon points="16.52 107.74 15.21 106.76 44.61 64.79 44.61 67.73 16.52 107.74" fill="#63c6c1"/></g><g clip-path="url(#clip-path-169)"><polygon points="15.21 106.76 13.74 105.78 44.61 61.69 44.61 64.79 15.21 106.76" fill="#63c6c1"/></g><g clip-path="url(#clip-path-169)"><polygon points="13.74 105.78 12.27 104.8 44.61 58.58 44.61 61.69 13.74 105.78" fill="#62c6c3"/></g><g clip-path="url(#clip-path-169)"><polygon points="12.27 104.8 10.97 103.66 44.61 55.64 44.61 58.58 12.27 104.8" fill="#61c6c3"/></g><g clip-path="url(#clip-path-169)"><polygon points="10.97 103.66 9.5 102.67 44.61 52.54 44.61 55.64 10.97 103.66" fill="#61c6c3"/></g><g clip-path="url(#clip-path-169)"><polygon points="9.5 102.67 8.03 101.69 44.61 49.6 44.61 52.54 9.5 102.67" fill="#60c6c4"/></g><g clip-path="url(#clip-path-169)"><polygon points="8.03 101.69 6.56 100.72 44.61 46.5 44.61 49.6 8.03 101.69" fill="#5fc6c4"/></g><g clip-path="url(#clip-path-169)"><polygon points="6.56 100.72 5.74 100.06 5.74 99.08 44.61 43.56 44.61 46.5 6.56 100.72" fill="#5ec6c5"/></g><g clip-path="url(#clip-path-169)"><polygon points="5.74 95.98 44.61 40.45 44.61 43.56 5.74 99.08 5.74 95.98" fill="#5ec6c7"/></g><g clip-path="url(#clip-path-169)"><polygon points="5.74 93.04 43.63 38.82 44.61 39.48 44.61 40.45 5.74 95.98 5.74 93.04" fill="#5dc5c6"/></g><g clip-path="url(#clip-path-169)"><polygon points="5.74 89.94 42.16 37.84 43.63 38.82 5.74 93.04 5.74 89.94" fill="#5bc5c7"/></g><g clip-path="url(#clip-path-169)"><polygon points="5.74 86.83 40.85 36.7 42.16 37.84 5.74 89.94 5.74 86.83" fill="#5bc5c7"/></g><g clip-path="url(#clip-path-169)"><polygon points="5.74 83.89 39.38 35.72 40.85 36.7 5.74 86.83 5.74 83.89" fill="#59c5c8"/></g><g clip-path="url(#clip-path-169)"><polygon points="5.74 80.79 37.91 34.74 39.38 35.72 5.74 83.89 5.74 80.79" fill="#59c5c8"/></g><g clip-path="url(#clip-path-169)"><polygon points="5.74 77.85 36.61 33.76 37.91 34.74 5.74 80.79 5.74 77.85" fill="#59c5c9"/></g><g clip-path="url(#clip-path-169)"><polygon points="5.74 74.75 35.14 32.78 36.61 33.76 5.74 77.85 5.74 74.75" fill="#57c5ca"/></g><g clip-path="url(#clip-path-169)"><polygon points="5.74 71.81 33.67 31.8 35.14 32.78 5.74 74.75 5.74 71.81" fill="#57c5ca"/></g><g clip-path="url(#clip-path-169)"><polygon points="5.74 68.71 32.36 30.82 33.67 31.8 5.74 71.81 5.74 68.71" fill="#55c5cc"/></g><g clip-path="url(#clip-path-169)"><polygon points="5.74 65.77 30.89 29.84 32.36 30.82 5.74 68.71 5.74 65.77" fill="#55c5cc"/></g><g clip-path="url(#clip-path-169)"><polygon points="5.74 62.66 29.42 28.86 30.89 29.84 5.74 65.77 5.74 62.66" fill="#55c5cc"/></g><g clip-path="url(#clip-path-169)"><polygon points="5.74 59.73 27.95 27.88 29.42 28.86 5.74 62.66 5.74 59.73" fill="#53c5cd"/></g><g clip-path="url(#clip-path-169)"><polygon points="5.74 56.62 26.64 26.74 27.95 27.88 5.74 59.73 5.74 56.62" fill="#52c5ce"/></g><g clip-path="url(#clip-path-169)"><polygon points="5.74 53.68 25.17 25.76 26.64 26.74 5.74 56.62 5.74 53.68" fill="#52c5cf"/></g><g clip-path="url(#clip-path-169)"><polygon points="5.74 50.58 23.7 24.78 25.17 25.76 5.74 53.68 5.74 50.58" fill="#50c4cf"/></g><g clip-path="url(#clip-path-169)"><polygon points="5.74 47.48 22.4 23.8 23.7 24.78 5.74 50.58 5.74 47.48" fill="#51c5d0"/></g><g clip-path="url(#clip-path-169)"><polygon points="5.74 44.54 20.93 22.82 22.4 23.8 5.74 47.48 5.74 44.54" fill="#4fc4d1"/></g><g clip-path="url(#clip-path-169)"><polygon points="5.74 41.43 19.46 21.84 20.93 22.82 5.74 44.54 5.74 41.43" fill="#4fc5d2"/></g><g clip-path="url(#clip-path-169)"><polygon points="5.74 38.49 17.99 20.86 19.46 21.84 5.74 41.43 5.74 38.49" fill="#4dc4d3"/></g><g clip-path="url(#clip-path-169)"><polygon points="5.74 35.39 16.36 20.37 17.34 20.37 17.99 20.86 5.74 38.49 5.74 35.39" fill="#4dc4d3"/></g><g clip-path="url(#clip-path-169)"><polygon points="5.74 32.45 14.23 20.37 16.36 20.37 5.74 35.39 5.74 32.45" fill="#4cc4d4"/></g><g clip-path="url(#clip-path-169)"><polygon points="5.74 29.35 12.11 20.37 14.23 20.37 5.74 32.45 5.74 29.35" fill="#4cc4d4"/></g><g clip-path="url(#clip-path-169)"><polygon points="5.74 26.41 9.99 20.37 12.11 20.37 5.74 29.35 5.74 26.41" fill="#4cc4d5"/></g><g clip-path="url(#clip-path-169)"><polygon points="5.74 23.31 7.86 20.37 9.99 20.37 5.74 26.41 5.74 23.31" fill="#4ac4d5"/></g><g clip-path="url(#clip-path-169)"><polygon points="5.74 20.37 5.74 20.37 7.86 20.37 5.74 23.31 5.74 20.37" fill="#49c4d7"/></g><g clip-path="url(#clip-path-169)"><path d="M5.74,20.37Z" fill="#49c4d7"/></g></g><g opacity="0.5"><g clip-path="url(#clip-path-221)"><path d="M116.46,40.94v0Z" fill="#316591"/></g><g clip-path="url(#clip-path-221)"><rect x="114.34" y="9.1" width="2.12" height="31.85" fill="#316591"/></g><g clip-path="url(#clip-path-221)"><rect x="112.22" y="9.1" width="2.12" height="31.85" fill="#326692"/></g><g clip-path="url(#clip-path-221)"><rect x="110.26" y="9.1" width="2.12" height="31.85" fill="#336793"/></g><g clip-path="url(#clip-path-221)"><rect x="108.13" y="9.1" width="2.12" height="31.85" fill="#336794"/></g><g clip-path="url(#clip-path-221)"><rect x="106.18" y="9.1" width="2.12" height="31.85" fill="#346894"/></g><g clip-path="url(#clip-path-221)"><rect x="104.05" y="9.1" width="2.12" height="31.85" fill="#356996"/></g><g clip-path="url(#clip-path-221)"><rect x="102.09" y="9.1" width="2.12" height="31.85" fill="#356a96"/></g><g clip-path="url(#clip-path-221)"><rect x="99.97" y="9.1" width="2.12" height="31.85" fill="#366a97"/></g><g clip-path="url(#clip-path-221)"><rect x="98.01" y="9.1" width="2.12" height="31.85" fill="#376b99"/></g><g clip-path="url(#clip-path-221)"><rect x="95.89" y="9.1" width="2.12" height="31.85" fill="#376c9a"/></g><g clip-path="url(#clip-path-221)"><rect x="93.93" y="9.1" width="2.12" height="31.85" fill="#396d9b"/></g><g clip-path="url(#clip-path-221)"><rect x="91.8" y="9.1" width="2.12" height="31.85" fill="#376d9c"/></g><g clip-path="url(#clip-path-221)"><rect x="89.68" y="9.1" width="2.12" height="31.85" fill="#376e9d"/></g><g clip-path="url(#clip-path-221)"><rect x="87.72" y="9.1" width="2.12" height="31.85" fill="#386f9e"/></g><g clip-path="url(#clip-path-221)"><rect x="85.6" y="9.1" width="2.12" height="31.85" fill="#39709f"/></g><g clip-path="url(#clip-path-221)"><rect x="83.64" y="9.1" width="2.12" height="31.85" fill="#3970a1"/></g><g clip-path="url(#clip-path-221)"><rect x="81.52" y="9.1" width="2.12" height="31.85" fill="#3a71a1"/></g><g clip-path="url(#clip-path-221)"><rect x="79.56" y="9.1" width="2.12" height="31.85" fill="#3b71a2"/></g><g clip-path="url(#clip-path-221)"><rect x="77.43" y="9.1" width="2.12" height="31.85" fill="#3a73a4"/></g><g clip-path="url(#clip-path-221)"><rect x="75.47" y="9.1" width="2.12" height="31.85" fill="#3c73a4"/></g><g clip-path="url(#clip-path-221)"><rect x="73.35" y="9.1" width="2.12" height="31.85" fill="#3b74a5"/></g><g clip-path="url(#clip-path-221)"><rect x="71.23" y="9.1" width="2.12" height="31.85" fill="#3c75a6"/></g><g clip-path="url(#clip-path-221)"><rect x="69.27" y="9.1" width="2.12" height="31.85" fill="#3c75a7"/></g><g clip-path="url(#clip-path-221)"><rect x="67.14" y="9.1" width="2.12" height="31.85" fill="#3d76a8"/></g><g clip-path="url(#clip-path-221)"><rect x="65.18" y="9.1" width="2.12" height="31.85" fill="#3e77a9"/></g><g clip-path="url(#clip-path-221)"><rect x="63.06" y="9.1" width="2.12" height="31.85" fill="#3d78aa"/></g><g clip-path="url(#clip-path-221)"><rect x="61.1" y="9.1" width="2.12" height="31.85" fill="#3f79ab"/></g><g clip-path="url(#clip-path-221)"><rect x="58.98" y="9.1" width="2.12" height="31.85" fill="#3f79ad"/></g><g clip-path="url(#clip-path-221)"><rect x="57.02" y="9.1" width="2.12" height="31.85" fill="#3f7aad"/></g><g clip-path="url(#clip-path-221)"><rect x="54.9" y="9.1" width="2.12" height="31.85" fill="#407bae"/></g><g clip-path="url(#clip-path-221)"><rect x="52.94" y="9.1" width="2.12" height="31.85" fill="#417cb0"/></g><g clip-path="url(#clip-path-221)"><rect x="50.81" y="9.1" width="2.12" height="31.85" fill="#417cb0"/></g><g clip-path="url(#clip-path-221)"><rect x="48.69" y="9.1" width="2.12" height="31.85" fill="#417db2"/></g><g clip-path="url(#clip-path-221)"><rect x="46.73" y="9.1" width="2.12" height="31.85" fill="#427eb3"/></g><g clip-path="url(#clip-path-221)"><rect x="44.61" y="9.1" width="2.12" height="31.85" fill="#427fb4"/></g><g clip-path="url(#clip-path-221)"><rect x="42.65" y="9.1" width="2.12" height="31.85" fill="#447fb4"/></g><g clip-path="url(#clip-path-221)"><rect x="40.53" y="9.1" width="2.12" height="31.85" fill="#4380b6"/></g><g clip-path="url(#clip-path-221)"><rect x="38.57" y="9.1" width="2.12" height="31.85" fill="#4481b6"/></g><g clip-path="url(#clip-path-221)"><rect x="36.44" y="9.1" width="2.12" height="31.85" fill="#4482b8"/></g><g clip-path="url(#clip-path-221)"><rect x="34.48" y="9.1" width="2.12" height="31.85" fill="#4582b9"/></g><g clip-path="url(#clip-path-221)"><rect x="32.36" y="9.1" width="2.12" height="31.85" fill="#4483ba"/></g><g clip-path="url(#clip-path-221)"><rect x="30.24" y="9.1" width="2.12" height="31.85" fill="#4784ba"/></g><g clip-path="url(#clip-path-221)"><rect x="28.28" y="9.1" width="2.12" height="31.85" fill="#4685bc"/></g><g clip-path="url(#clip-path-221)"><rect x="26.15" y="9.1" width="2.12" height="31.85" fill="#4584bd"/></g><g clip-path="url(#clip-path-221)"><rect x="24.19" y="9.1" width="2.12" height="31.85" fill="#4686bd"/></g><g clip-path="url(#clip-path-221)"><rect x="22.07" y="9.1" width="2.12" height="31.85" fill="#4687bf"/></g><g clip-path="url(#clip-path-221)"><rect x="20.11" y="9.1" width="2.12" height="31.85" fill="#4788c0"/></g><g clip-path="url(#clip-path-221)"><rect x="17.99" y="9.1" width="2.12" height="31.85" fill="#4787c1"/></g><g clip-path="url(#clip-path-221)"><rect x="16.03" y="9.1" width="2.12" height="31.85" fill="#4789c2"/></g><g clip-path="url(#clip-path-221)"><rect x="13.91" y="9.1" width="2.12" height="31.85" fill="#4889c3"/></g><g clip-path="url(#clip-path-221)"><rect x="11.78" y="9.1" width="2.12" height="31.85" fill="#488ac4"/></g><g clip-path="url(#clip-path-221)"><rect x="9.82" y="9.1" width="2.12" height="31.85" fill="#488bc5"/></g><g clip-path="url(#clip-path-221)"><rect x="7.7" y="9.1" width="2.12" height="31.85" fill="#4a8cc6"/></g><g clip-path="url(#clip-path-221)"><polygon points="5.74 20.37 5.74 9.1 7.7 9.1 7.7 40.94 5.74 40.94 5.74 20.37" fill="#498cc7"/></g><g clip-path="url(#clip-path-221)"><path d="M5.74,9.1v0Z" fill="#498cc7"/></g></g><g opacity="0.5"><g clip-path="url(#clip-path-277)"><polygon points="106.99 119.17 116.46 108.06 116.46 119.17 106.99 119.17" fill="#62bbe9"/></g><g clip-path="url(#clip-path-277)"><polygon points="105.36 119.17 116.46 106.1 116.46 108.06 106.99 119.17 105.36 119.17" fill="#62bbe9"/></g><g clip-path="url(#clip-path-277)"><polygon points="103.89 119.17 116.46 104.14 116.46 106.1 105.36 119.17 103.89 119.17" fill="#61bae9"/></g><g clip-path="url(#clip-path-277)"><polygon points="102.26 119.17 116.46 102.19 116.46 104.14 103.89 119.17 102.26 119.17" fill="#60b9e8"/></g><g clip-path="url(#clip-path-277)"><polygon points="100.62 119.17 116.46 100.39 116.46 102.19 102.26 119.17 100.62 119.17" fill="#60b8e7"/></g><g clip-path="url(#clip-path-277)"><polygon points="98.99 119.17 116.46 98.43 116.46 100.39 100.62 119.17 98.99 119.17" fill="#5eb7e7"/></g><g clip-path="url(#clip-path-277)"><polygon points="97.36 119.17 116.46 96.47 116.46 98.43 98.99 119.17 97.36 119.17" fill="#5db5e6"/></g><g clip-path="url(#clip-path-277)"><polygon points="95.72 119.17 116.46 94.51 116.46 96.47 97.36 119.17 95.72 119.17" fill="#5cb5e5"/></g><g clip-path="url(#clip-path-277)"><polygon points="94.09 119.17 116.46 92.71 116.46 94.51 95.72 119.17 94.09 119.17" fill="#5db4e5"/></g><g clip-path="url(#clip-path-277)"><polygon points="92.62 119.17 116.46 90.75 116.46 92.71 94.09 119.17 92.62 119.17" fill="#5ab3e5"/></g><g clip-path="url(#clip-path-277)"><polygon points="90.99 119.17 116.46 88.79 116.46 90.75 92.62 119.17 90.99 119.17" fill="#58b1e4"/></g><g clip-path="url(#clip-path-277)"><polygon points="89.35 119.17 116.46 86.83 116.46 88.79 90.99 119.17 89.35 119.17" fill="#58b0e3"/></g><g clip-path="url(#clip-path-277)"><polygon points="87.72 119.17 116.46 85.04 116.46 86.83 89.35 119.17 87.72 119.17" fill="#57afe2"/></g><g clip-path="url(#clip-path-277)"><polygon points="86.09 119.17 116.46 83.08 116.46 85.04 87.72 119.17 86.09 119.17" fill="#56aee1"/></g><g clip-path="url(#clip-path-277)"><polygon points="84.45 119.17 116.46 81.12 116.46 83.08 86.09 119.17 84.45 119.17" fill="#55ade1"/></g><g clip-path="url(#clip-path-277)"><polygon points="82.82 119.17 116.46 79.16 116.46 81.12 84.45 119.17 82.82 119.17" fill="#54ace0"/></g><g clip-path="url(#clip-path-277)"><polygon points="81.35 119.17 116.46 77.36 116.46 79.16 82.82 119.17 81.35 119.17" fill="#53abdf"/></g><g clip-path="url(#clip-path-277)"><polygon points="79.72 119.17 116.46 75.4 116.46 77.36 81.35 119.17 79.72 119.17" fill="#52aadf"/></g><g clip-path="url(#clip-path-277)"><polygon points="78.09 119.17 116.46 73.44 116.46 75.4 79.72 119.17 78.09 119.17" fill="#51a9df"/></g><g clip-path="url(#clip-path-277)"><polygon points="76.45 119.17 116.46 71.48 116.46 73.44 78.09 119.17 76.45 119.17" fill="#51a8de"/></g><g clip-path="url(#clip-path-277)"><polygon points="74.82 119.17 116.46 69.69 116.46 71.48 76.45 119.17 74.82 119.17" fill="#52a7dd"/></g><g clip-path="url(#clip-path-277)"><polygon points="73.19 119.17 116.46 67.73 116.46 69.69 74.82 119.17 73.19 119.17" fill="#51a6dc"/></g><g clip-path="url(#clip-path-277)"><polygon points="71.72 119.17 116.46 65.77 116.46 67.73 73.19 119.17 71.72 119.17" fill="#50a5db"/></g><g clip-path="url(#clip-path-277)"><polygon points="70.08 119.17 116.46 63.97 116.46 65.77 71.72 119.17 70.08 119.17" fill="#4fa4db"/></g><g clip-path="url(#clip-path-277)"><polygon points="68.45 119.17 116.46 62.01 116.46 63.97 70.08 119.17 68.45 119.17" fill="#4ea3db"/></g><g clip-path="url(#clip-path-277)"><polygon points="66.82 119.17 116.46 60.05 116.46 62.01 68.45 119.17 66.82 119.17" fill="#4ca1d9"/></g><g clip-path="url(#clip-path-277)"><polygon points="65.19 119.17 116.46 58.09 116.46 60.05 66.82 119.17 65.19 119.17" fill="#4ca0d8"/></g><g clip-path="url(#clip-path-277)"><polygon points="63.55 119.17 116.46 56.3 116.46 58.09 65.19 119.17 63.55 119.17" fill="#4aa0d8"/></g><g clip-path="url(#clip-path-277)"><polygon points="61.92 119.17 116.46 54.34 116.46 56.3 63.55 119.17 61.92 119.17" fill="#4a9ed7"/></g><g clip-path="url(#clip-path-277)"><polygon points="60.45 119.17 116.46 52.38 116.46 54.34 61.92 119.17 60.45 119.17" fill="#499dd6"/></g><g clip-path="url(#clip-path-277)"><polygon points="58.82 119.17 116.46 50.42 116.46 52.38 60.45 119.17 58.82 119.17" fill="#489cd6"/></g><g clip-path="url(#clip-path-277)"><polygon points="57.18 119.17 116.46 48.62 116.46 50.42 58.82 119.17 57.18 119.17" fill="#499bd5"/></g><g clip-path="url(#clip-path-277)"><polygon points="55.55 119.17 116.46 46.66 116.46 48.62 57.18 119.17 55.55 119.17" fill="#479ad5"/></g><g clip-path="url(#clip-path-277)"><polygon points="53.92 119.17 116.46 44.7 116.46 46.66 55.55 119.17 53.92 119.17" fill="#459ad4"/></g><g clip-path="url(#clip-path-277)"><polygon points="52.28 119.17 116.46 42.74 116.46 44.7 53.92 119.17 52.28 119.17" fill="#4499d4"/></g><g clip-path="url(#clip-path-277)"><polygon points="50.81 119.17 116.46 40.94 116.46 42.74 52.28 119.17 50.81 119.17" fill="#4498d3"/></g><g clip-path="url(#clip-path-277)"><polygon points="49.18 119.17 116.46 38.98 116.46 40.94 50.81 119.17 49.18 119.17" fill="#4397d2"/></g><g clip-path="url(#clip-path-277)"><polygon points="47.55 119.17 116.46 37.02 116.46 38.98 49.18 119.17 47.55 119.17" fill="#4296d2"/></g><g clip-path="url(#clip-path-277)"><polygon points="45.91 119.17 116.46 35.06 116.46 37.02 47.55 119.17 45.91 119.17" fill="#4294d1"/></g><g clip-path="url(#clip-path-277)"><polygon points="44.61 119.01 116.46 33.27 116.46 35.06 45.91 119.17 44.61 119.17 44.61 119.01" fill="#4194d0"/></g><g clip-path="url(#clip-path-277)"><polygon points="44.61 117.05 116.46 31.31 116.46 33.27 44.61 119.01 44.61 117.05" fill="#4092cf"/></g><g clip-path="url(#clip-path-277)"><polygon points="44.61 115.09 116.14 29.84 116.46 29.84 116.46 31.31 44.61 117.05 44.61 115.09" fill="#3f92cf"/></g><g clip-path="url(#clip-path-277)"><polygon points="44.61 113.13 114.5 29.84 116.14 29.84 44.61 115.09 44.61 113.13" fill="#3f90ce"/></g><g clip-path="url(#clip-path-277)"><polygon points="44.61 111.33 112.87 29.84 114.5 29.84 44.61 113.13 44.61 111.33" fill="#3d90ce"/></g><g clip-path="url(#clip-path-277)"><polygon points="44.61 109.37 111.24 29.84 112.87 29.84 44.61 111.33 44.61 109.37" fill="#3d8ecc"/></g><g clip-path="url(#clip-path-277)"><polygon points="44.61 107.41 109.77 29.84 111.24 29.84 44.61 109.37 44.61 107.41" fill="#3c8dcc"/></g><g clip-path="url(#clip-path-277)"><polygon points="44.61 105.45 108.14 29.84 109.77 29.84 44.61 107.41 44.61 105.45" fill="#3c8bcb"/></g><g clip-path="url(#clip-path-277)"><polygon points="44.61 103.66 106.5 29.84 108.14 29.84 44.61 105.45 44.61 103.66" fill="#3b8bca"/></g><g clip-path="url(#clip-path-277)"><polygon points="44.61 101.69 104.87 29.84 106.5 29.84 44.61 103.66 44.61 101.69" fill="#3b89c9"/></g><g clip-path="url(#clip-path-277)"><polygon points="104.87 29.84 44.61 101.69 44.61 29.84 104.87 29.84" fill="#3b89c9"/></g></g><path d="M40.69,41.76A4.88,4.88,0,0,1,44.77,37l36.75-5.88V83.24a8.44,8.44,0,0,1-7.19,8.33l-33.8,5.55Zm32.82-1.31-25,3.92V87.81l25.15-4.08V40.45Z" fill="#fff"/><rect x="40.69" y="74.75" width="7.84" height="46.05" fill="#fff"/><rect x="77.6" y="2.24" width="3.92" height="59.93" fill="#fff"/><path d="M116.46,34.09v69.24a5.09,5.09,0,0,1-4.24,5.06L54.57,117.7a5.12,5.12,0,0,1-5.88-5.06V100.23a5.11,5.11,0,0,1,4.25-5.07L75.8,91.57a6.83,6.83,0,0,0,5.72-6.7L81.84,20a5.11,5.11,0,0,1,7.51-4.57L112.71,28A6.73,6.73,0,0,1,116.46,34.09ZM122.18,22,82.85.76C80.57-.35,79.56.61,79.56,2.24l-1.8,83.29a1.94,1.94,0,0,1-1.63,2L46.24,92.22a1.94,1.94,0,0,0-1.63,2v30.54c0,.29-.73.07-.6.32a3.87,3.87,0,0,0,2.88,1.64l74.47-13.55a2,2,0,0,0,1.64-2V23.63A2.27,2.27,0,0,0,122.18,22Z" fill="#fff"/><path d="M77.6,15V27.23a5.27,5.27,0,0,1-4.41,5.22L45.26,37a5.26,5.26,0,0,0-4.41,5.22v65.81A5.35,5.35,0,0,1,33,112.8L8.84,99.9a5.31,5.31,0,0,1-2.77-4.74V24.61a4.27,4.27,0,0,1,4-4.62L71.88,9.92C74.66,9.26,77.6,11.71,77.6,15ZM76.94.12,2.64,13A2.64,2.64,0,0,0,.35,15.63L0,96.63a2.51,2.51,0,0,0,1.46,2.62l43.85,27c2.16.5,1.55-2.13,1.39-4.42L44.61,43.72a2.85,2.85,0,0,1,2.45-2.94l30.21-3.43a2.68,2.68,0,0,0,2.45-2.77L83.53,1.72C83.69.09,78.58-.21,76.94.12Z" fill="#fff"/><path d="M58.49,67.4a2,2,0,0,1-.33-3.92l16.5-2.61a2,2,0,0,1,.65,3.92L58.82,67.4Z" fill="#fff"/><path d="M71.06,65.44h0a2.3,2.3,0,0,1,2.62,2.12V81.77H81V45l-7.35.32V57.93a3.69,3.69,0,0,1-2.94,3.59L68,62Z" fill="#fff"/></svg>